<svg id="add" xmlns="http://www.w3.org/2000/svg" width="19" height="19" viewBox="0 0 19 19">
  <g id="Group_4214" data-name="Group 4214">
    <g id="Group_4213" data-name="Group 4213">
      <path id="Path_14044" data-name="Path 14044" d="M9.5,0A9.5,9.5,0,1,0,19,9.5,9.511,9.511,0,0,0,9.5,0Zm0,17.643A8.143,8.143,0,1,1,17.643,9.5,8.152,8.152,0,0,1,9.5,17.643Z" fill="#255ca3"/>
    </g>
  </g>
  <g id="Group_4216" data-name="Group 4216" transform="translate(8.821 4.976)">
    <g id="Group_4215" data-name="Group 4215">
      <path id="Path_14045" data-name="Path 14045" d="M238.393,134.1a.679.679,0,0,0-.679.679v7.69a.679.679,0,0,0,1.357,0v-7.69A.679.679,0,0,0,238.393,134.1Z" transform="translate(-237.714 -134.095)" fill="#255ca3"/>
    </g>
  </g>
  <g id="Group_4218" data-name="Group 4218" transform="translate(4.976 8.821)">
    <g id="Group_4217" data-name="Group 4217">
      <path id="Path_14046" data-name="Path 14046" d="M142.464,237.714h-7.69a.679.679,0,0,0,0,1.357h7.69a.679.679,0,0,0,0-1.357Z" transform="translate(-134.095 -237.714)" fill="#255ca3"/>
    </g>
  </g>
</svg>
