<svg xmlns="http://www.w3.org/2000/svg" width="22.5" height="19.89" viewBox="0 0 22.5 19.89">
  <g id="calendar_9_" data-name="calendar (9)" transform="translate(0 -29.694)">
    <g id="Group_4137" data-name="Group 4137" transform="translate(0 29.694)">
      <g id="Group_4136" data-name="Group 4136">
        <path id="Path_9611" data-name="Path 9611" d="M19.66,30.714H18.184v-.361a.659.659,0,1,0-1.318,0v.361H15.047v-.361a.659.659,0,0,0-1.318,0v.361H11.909v-.361a.659.659,0,0,0-1.318,0v.361H8.772v-.361a.659.659,0,0,0-1.318,0v.361H5.634v-.361a.659.659,0,0,0-1.318,0v.361H2.84A2.843,2.843,0,0,0,0,33.555v13.19a2.843,2.843,0,0,0,2.84,2.84H19.66a2.843,2.843,0,0,0,2.84-2.84V33.555A2.843,2.843,0,0,0,19.66,30.714Zm1.522,16.03a1.524,1.524,0,0,1-1.522,1.522H2.84a1.524,1.524,0,0,1-1.522-1.522V35.963H21.182Zm0-12.1H1.318v-1.09A1.524,1.524,0,0,1,2.84,32.033H4.316v.255a.659.659,0,1,0,1.318,0v-.255H7.453v.255a.659.659,0,1,0,1.318,0v-.255h1.819v.255a.659.659,0,1,0,1.318,0v-.255h1.819v.255a.659.659,0,1,0,1.318,0v-.255h1.819v.255a.659.659,0,1,0,1.318,0v-.255H19.66a1.524,1.524,0,0,1,1.522,1.522Z" transform="translate(0 -29.694)" fill="#616161"/>
      </g>
    </g>
    <g id="Group_4139" data-name="Group 4139" transform="translate(4.088 37.368)">
      <g id="Group_4138" data-name="Group 4138">
        <path id="Path_9612" data-name="Path 9612" d="M96.286,204.329h-2.6a.659.659,0,0,0-.659.659v2.691a.659.659,0,0,0,.659.659h2.6a.659.659,0,0,0,.659-.659v-2.691A.659.659,0,0,0,96.286,204.329Zm-.659,2.691H94.344v-1.373h1.283Z" transform="translate(-93.026 -204.329)" fill="#616161"/>
      </g>
    </g>
    <g id="Group_4141" data-name="Group 4141" transform="translate(9.29 37.368)">
      <g id="Group_4140" data-name="Group 4140">
        <path id="Path_9613" data-name="Path 9613" d="M214.666,204.329h-2.6a.659.659,0,0,0-.659.659v2.691a.659.659,0,0,0,.659.659h2.6a.659.659,0,0,0,.659-.659v-2.691A.659.659,0,0,0,214.666,204.329Zm-.659,2.691h-1.283v-1.373h1.283Z" transform="translate(-211.406 -204.329)" fill="#616161"/>
      </g>
    </g>
    <g id="Group_4143" data-name="Group 4143" transform="translate(14.493 37.368)">
      <g id="Group_4142" data-name="Group 4142">
        <path id="Path_9614" data-name="Path 9614" d="M333.045,204.329h-2.6a.659.659,0,0,0-.659.659v2.691a.659.659,0,0,0,.659.659h2.6a.659.659,0,0,0,.659-.659v-2.691A.659.659,0,0,0,333.045,204.329Zm-.659,2.691H331.1v-1.373h1.283Z" transform="translate(-329.785 -204.329)" fill="#616161"/>
      </g>
    </g>
    <g id="Group_4145" data-name="Group 4145" transform="translate(4.088 42.481)">
      <g id="Group_4144" data-name="Group 4144">
        <path id="Path_9615" data-name="Path 9615" d="M96.286,320.658h-2.6a.659.659,0,0,0-.659.659v2.691a.659.659,0,0,0,.659.659h2.6a.659.659,0,0,0,.659-.659v-2.691A.659.659,0,0,0,96.286,320.658Zm-.659,2.691H94.344v-1.373h1.283Z" transform="translate(-93.026 -320.658)" fill="#616161"/>
      </g>
    </g>
    <g id="Group_4147" data-name="Group 4147" transform="translate(9.29 42.481)">
      <g id="Group_4146" data-name="Group 4146">
        <path id="Path_9616" data-name="Path 9616" d="M214.666,320.658h-2.6a.659.659,0,0,0-.659.659v2.691a.659.659,0,0,0,.659.659h2.6a.659.659,0,0,0,.659-.659v-2.691A.659.659,0,0,0,214.666,320.658Zm-.659,2.691h-1.283v-1.373h1.283Z" transform="translate(-211.406 -320.658)" fill="#616161"/>
      </g>
    </g>
    <g id="Group_4149" data-name="Group 4149" transform="translate(14.493 42.481)">
      <g id="Group_4148" data-name="Group 4148">
        <path id="Path_9617" data-name="Path 9617" d="M333.045,320.658h-2.6a.659.659,0,0,0-.659.659v2.691a.659.659,0,0,0,.659.659h2.6a.659.659,0,0,0,.659-.659v-2.691A.659.659,0,0,0,333.045,320.658Zm-.659,2.691H331.1v-1.373h1.283Z" transform="translate(-329.785 -320.658)" fill="#616161"/>
      </g>
    </g>
  </g>
</svg>
