<?xml version="1.0" encoding="utf-8"?>
<!-- Generator: Adobe Illustrator 14.0.0, SVG Export Plug-In . SVG Version: 6.00 Build 43363)  -->
<!DOCTYPE svg PUBLIC "-//W3C//DTD SVG 1.1//EN" "http://www.w3.org/Graphics/SVG/1.1/DTD/svg11.dtd">
<svg version="1.1" id="Layer_1" xmlns="http://www.w3.org/2000/svg" xmlns:xlink="http://www.w3.org/1999/xlink" x="0px" y="0px"
	 width="21px" height="18px" viewBox="0 0 21 18" enable-background="new 0 0 21 18" xml:space="preserve">
<g>
	<path fill="none" stroke="#666666" stroke-width="0.5" stroke-miterlimit="10" d="M9,14L9,14c-0.8,0-1.5-0.8-1.5-1.5l0,0
		C7.5,11.7,8.3,11,9,11l0,0c0.8,0,1.5,0.8,1.5,1.5l0,0C10.5,13.3,9.8,14,9,14z"/>
	<path fill="none" stroke="#666666" stroke-width="0.5" stroke-miterlimit="10" d="M13,14L13,14c-0.8,0-1.5-0.8-1.5-1.5l0,0
		c0-0.8,0.8-1.5,1.5-1.5l0,0c0.8,0,1.5,0.8,1.5,1.5l0,0C14.5,13.3,13.8,14,13,14z"/>
	<path fill="none" stroke="#666666" stroke-width="0.5" stroke-miterlimit="10" d="M17,14L17,14c-0.8,0-1.5-0.8-1.5-1.5l0,0
		c0-0.8,0.8-1.5,1.5-1.5l0,0c0.8,0,1.5,0.8,1.5,1.5l0,0C18.5,13.3,17.8,14,17,14z"/>
	<path fill="none" stroke="#666666" stroke-width="0.5" stroke-miterlimit="10" d="M5,14L5,14c-0.8,0-1.5-0.8-1.5-1.5l0,0
		C3.5,11.7,4.3,11,5,11l0,0c0.8,0,1.5,0.8,1.5,1.5l0,0C6.5,13.3,5.8,14,5,14z"/>
	<path fill="#666666" d="M9,9L9,9C8.2,9,7.5,8.2,7.5,7.5l0,0C7.5,6.7,8.3,6,9,6l0,0c0.8,0,1.5,0.8,1.5,1.5l0,0C10.5,8.3,9.8,9,9,9z"
		/>
	<path fill="#666666" d="M13,9L13,9c-0.8,0-1.5-0.8-1.5-1.5l0,0C11.5,6.7,12.3,6,13,6l0,0c0.8,0,1.5,0.8,1.5,1.5l0,0
		C14.5,8.3,13.8,9,13,9z"/>
	<path fill="none" stroke="#666666" stroke-width="0.5" stroke-miterlimit="10" d="M17,9L17,9c-0.8,0-1.5-0.8-1.5-1.5l0,0
		C15.5,6.7,16.3,6,17,6l0,0c0.8,0,1.5,0.8,1.5,1.5l0,0C18.5,8.3,17.8,9,17,9z"/>
	<path fill="#666666" d="M5,9L5,9C4.2,9,3.5,8.2,3.5,7.5l0,0C3.5,6.7,4.3,6,5,6l0,0c0.8,0,1.5,0.8,1.5,1.5l0,0C6.5,8.3,5.8,9,5,9z"
		/>
	<path fill="#666666" d="M7,4L7,4C6.7,4,6.5,3.8,6.5,3.5v-3C6.5,0.2,6.7,0,7,0l0,0c0.3,0,0.5,0.2,0.5,0.5v3C7.5,3.8,7.3,4,7,4z"/>
	<path fill="#666666" d="M15,4L15,4c-0.3,0-0.5-0.2-0.5-0.5v-3C14.5,0.2,14.7,0,15,0l0,0c0.3,0,0.5,0.2,0.5,0.5v3
		C15.5,3.8,15.3,4,15,4z"/>
	<g>
		<path fill="#666666" d="M20.5,2h-4v1h3c0.5,0,1,0.3,1,1v12c0,0.7-0.5,1-1,1h-17c-0.5,0-1-0.3-1-1V4c0-0.7,0.5-1,1-1h3V2h-4
			c-0.5,0-1,0.5-1,1.2v13.6c0,0.7,0.5,1.2,1,1.2h19c0.5,0,1-0.5,1-1.2V3.2C21.5,2.5,21,2,20.5,2z"/>
	</g>
	<path fill="#666666" d="M13,3H9C8.7,3,8.5,2.8,8.5,2.5l0,0C8.5,2.2,8.7,2,9,2h4c0.3,0,0.5,0.2,0.5,0.5l0,0C13.5,2.8,13.3,3,13,3z"
		/>
</g>
</svg>
