<?xml version="1.0" encoding="utf-8"?>
<!-- Generator: Adobe Illustrator 14.0.0, SVG Export Plug-In . SVG Version: 6.00 Build 43363)  -->
<!DOCTYPE svg PUBLIC "-//W3C//DTD SVG 1.1//EN" "http://www.w3.org/Graphics/SVG/1.1/DTD/svg11.dtd">
<svg version="1.1" id="Layer_1" xmlns="http://www.w3.org/2000/svg" xmlns:xlink="http://www.w3.org/1999/xlink" x="0px" y="0px"
	 width="30px" height="30px" viewBox="0 0 30 30" enable-background="new 0 0 30 30" xml:space="preserve">
<g>
	<path fill="#5225B5" d="M15,30C6.729,30,0,23.271,0,15C0,6.729,6.729,0,15,0s15,6.729,15,15C30,23.271,23.271,30,15,30z M15,2.143
		C7.91,2.143,2.142,7.911,2.142,15S7.91,27.857,14.999,27.857c7.091,0,12.857-5.769,12.857-12.857S22.09,2.143,15,2.143z"/>
	<path fill="#5225B5" d="M15,24.645c-0.279,0-0.557-0.119-0.761-0.313c-0.193-0.203-0.311-0.482-0.311-0.76
		c0-0.279,0.118-0.559,0.311-0.762c0.3-0.3,0.782-0.396,1.167-0.226c0.129,0.054,0.247,0.129,0.354,0.226
		c0.192,0.203,0.312,0.481,0.312,0.762c0,0.277-0.118,0.557-0.312,0.76c-0.106,0.098-0.225,0.172-0.354,0.227
		C15.278,24.611,15.139,24.645,15,24.645z"/>
	<path fill="#5225B5" d="M15,20.357c-0.592,0-1.071-0.479-1.071-1.071V7.5c0-0.592,0.479-1.071,1.071-1.071
		c0.591,0,1.071,0.48,1.071,1.071v11.786C16.071,19.878,15.592,20.357,15,20.357z"/>
</g>
</svg>
