<svg xmlns="http://www.w3.org/2000/svg" width="340.7" height="111" viewBox="0 0 340.7 111">
  <g id="Group_4345" data-name="Group 4345" transform="translate(-739.316 -163)">
    <path id="Intersection_4" data-name="Intersection 4" d="M95.2,82a2,2,0,1,1,2,2A2,2,0,0,1,95.2,82ZM76.157,82a2,2,0,1,1,2,2A2,2,0,0,1,76.157,82ZM57.118,82a2,2,0,1,1,2,2A2,2,0,0,1,57.118,82ZM38.08,82a2,2,0,1,1,2,2A2,2,0,0,1,38.08,82ZM19.041,82a2,2,0,1,1,2,2A2,2,0,0,1,19.041,82ZM0,82a2,2,0,1,1,2,2A2,2,0,0,1,0,82ZM95.2,62a2,2,0,1,1,2,2A2,2,0,0,1,95.2,62ZM76.157,62a2,2,0,1,1,2,2A2,2,0,0,1,76.157,62ZM57.118,62a2,2,0,1,1,2,2A2,2,0,0,1,57.118,62ZM38.08,62a2,2,0,1,1,2,2A2,2,0,0,1,38.08,62ZM19.041,62a2,2,0,1,1,2,2A2,2,0,0,1,19.041,62ZM0,62a2,2,0,1,1,2,2A2,2,0,0,1,0,62ZM95.2,42a2,2,0,1,1,2,2A2,2,0,0,1,95.2,42ZM76.157,42a2,2,0,1,1,2,2A2,2,0,0,1,76.157,42ZM57.118,42a2,2,0,1,1,2,2A2,2,0,0,1,57.118,42ZM38.08,42a2,2,0,1,1,2,2A2,2,0,0,1,38.08,42ZM19.041,42a2,2,0,1,1,2,2A2,2,0,0,1,19.041,42ZM0,42a2,2,0,1,1,2,2A2,2,0,0,1,0,42ZM95.2,22a2,2,0,1,1,2,2A2,2,0,0,1,95.2,22ZM76.157,22a2,2,0,1,1,2,2A2,2,0,0,1,76.157,22ZM57.118,22a2,2,0,1,1,2,2A2,2,0,0,1,57.118,22ZM38.08,22a2,2,0,1,1,2,2A2,2,0,0,1,38.08,22ZM19.041,22a2,2,0,1,1,2,2A2,2,0,0,1,19.041,22ZM0,22a2,2,0,1,1,2,2A2,2,0,0,1,0,22ZM95.2,2a2,2,0,1,1,2,2A2,2,0,0,1,95.2,2ZM76.157,2a2,2,0,1,1,2,2A2,2,0,0,1,76.157,2ZM57.118,2a2,2,0,1,1,2,2A2,2,0,0,1,57.118,2ZM38.08,2a2,2,0,1,1,2,2A2,2,0,0,1,38.08,2ZM19.041,2a2,2,0,1,1,2,2A2,2,0,0,1,19.041,2ZM0,2A2,2,0,1,1,2,4,2,2,0,0,1,0,2Z" transform="translate(980.811 169.002)" fill="#fff" opacity="0.23"/>
    <path id="Intersection_3" data-name="Intersection 3" d="M0,99.791V12A12,12,0,0,1,12,0H129.021A88.706,88.706,0,0,1,0,99.791Z" transform="translate(739.316 163)" fill="#fff" opacity="0.1"/>
  </g>
</svg>
