<?xml version="1.0" encoding="utf-8"?>
<!-- Generator: Adobe Illustrator 14.0.0, SVG Export Plug-In . SVG Version: 6.00 Build 43363)  -->
<!DOCTYPE svg PUBLIC "-//W3C//DTD SVG 1.1//EN" "http://www.w3.org/Graphics/SVG/1.1/DTD/svg11.dtd">
<svg version="1.1" id="Layer_1" xmlns="http://www.w3.org/2000/svg" xmlns:xlink="http://www.w3.org/1999/xlink" x="0px" y="0px"
	 width="30px" height="30px" viewBox="0 0 30 30" enable-background="new 0 0 30 30" xml:space="preserve">
<g>
	<path fill="#8A7ABF" d="M18.207,0.5c-1.412,0-2.668,0.68-3.457,1.731C13.961,1.181,12.705,0.5,11.293,0.5H0V30h29.5V0.5H18.207z
		 M17.931,1.875h10.322v19.807H17.931c-1.048,0-2.02,0.333-2.797,0.897V4.558C15.134,3.08,16.388,1.875,17.931,1.875z
		 M14.327,25.682c-0.775-0.545-1.739-0.867-2.781-0.867H1.289v-1.729h10.257C13.078,23.086,14.327,24.25,14.327,25.682z
		 M15.179,25.68c0-1.43,1.245-2.594,2.778-2.594h10.251v1.729H17.957C16.916,24.814,15.951,25.137,15.179,25.68z M11.52,1.92
		c1.522,0,2.762,1.2,2.762,2.673v17.94c-0.77-0.562-1.727-0.894-2.762-0.894H1.333V1.92H11.52z M1.243,26.543h10.338
		c1.218,0,2.256,0.723,2.642,1.729H1.243V26.543z M15.415,28.271c0.378-1.006,1.395-1.729,2.587-1.729h10.116v1.729H15.415z"/>
	<path fill="#8A7ABF" d="M12.157,3.958H6.972v7.029h5.186L12.157,3.958L12.157,3.958z M10.429,9.258H8.7V5.687h1.729V9.258z"/>
	<path fill="#8A7ABF" d="M3.515,3.958h1.728v1.729H3.515V3.958z"/>
	<path fill="#8A7ABF" d="M12.157,12.601H6.972v7.028h5.186L12.157,12.601L12.157,12.601z M10.429,17.9H8.7v-3.572h1.729V17.9z"/>
	<path fill="#8A7ABF" d="M3.515,12.601h1.728v1.728H3.515V12.601z"/>
	<path fill="#8A7ABF" d="M26.043,3.958h-5.186v7.029h5.186V3.958z M24.314,9.258h-1.729V5.687h1.729V9.258z"/>
	<path fill="#8A7ABF" d="M17.4,3.958h1.729v1.729H17.4V3.958z"/>
	<path fill="#8A7ABF" d="M26.043,12.601h-5.186v7.028h5.186V12.601z M24.314,17.9h-1.729v-3.572h1.729V17.9z"/>
	<path fill="#8A7ABF" d="M17.4,12.601h1.729v1.728H17.4V12.601z"/>
</g>
</svg>
