<?xml version="1.0" encoding="utf-8"?>
<!-- Generator: Adobe Illustrator 14.0.0, SVG Export Plug-In . SVG Version: 6.00 Build 43363)  -->
<!DOCTYPE svg PUBLIC "-//W3C//DTD SVG 1.1//EN" "http://www.w3.org/Graphics/SVG/1.1/DTD/svg11.dtd">
<svg version="1.1" id="Layer_1" xmlns="http://www.w3.org/2000/svg" xmlns:xlink="http://www.w3.org/1999/xlink" x="0px" y="0px"
	 width="30px" height="30px" viewBox="0 0 30 30" enable-background="new 0 0 30 30" xml:space="preserve">
<g>
	<g>
		<path fill="#5225B5" d="M25.449,4.459c-2.834-2.835-6.597-4.394-10.605-4.394S7.072,1.625,4.238,4.459
			c-2.835,2.834-4.395,6.597-4.395,10.606s1.56,7.771,4.395,10.605c2.834,2.835,6.597,4.395,10.605,4.395s7.771-1.56,10.605-4.395
			c2.836-2.834,4.395-6.597,4.395-10.605S28.285,7.294,25.449,4.459z M24.244,24.465c-2.514,2.513-5.853,3.896-9.4,3.896
			s-6.887-1.383-9.4-3.896c-5.183-5.183-5.183-13.617,0-18.8c2.513-2.512,5.852-3.895,9.4-3.895s6.887,1.383,9.4,3.895
			C29.427,10.848,29.427,19.282,24.244,24.465z"/>
		<path fill="#5225B5" d="M21.453,8.456c-0.334-0.335-0.871-0.335-1.205,0l-5.404,5.403L9.439,8.456
			c-0.334-0.335-0.871-0.335-1.206,0c-0.334,0.334-0.334,0.871,0,1.205l5.404,5.404L8.234,20.47c-0.334,0.335-0.334,0.871,0,1.206
			c0.165,0.164,0.385,0.252,0.6,0.252c0.214,0,0.436-0.082,0.6-0.252l5.404-5.404l5.403,5.404c0.165,0.164,0.386,0.252,0.601,0.252
			c0.221,0,0.436-0.082,0.6-0.252c0.334-0.335,0.334-0.871,0-1.206l-5.392-5.404l5.403-5.404
			C21.789,9.327,21.789,8.791,21.453,8.456z"/>
	</g>
</g>
</svg>
