<?xml version="1.0" encoding="utf-8"?>
<!-- Generator: Adobe Illustrator 14.0.0, SVG Export Plug-In . SVG Version: 6.00 Build 43363)  -->
<!DOCTYPE svg PUBLIC "-//W3C//DTD SVG 1.1//EN" "http://www.w3.org/Graphics/SVG/1.1/DTD/svg11.dtd">
<svg version="1.1" id="Layer_1" xmlns="http://www.w3.org/2000/svg" xmlns:xlink="http://www.w3.org/1999/xlink" x="0px" y="0px"
	 width="30px" height="30px" viewBox="0 0 30 30" enable-background="new 0 0 30 30" xml:space="preserve">
<g>
	<g>
		<path fill="#5225B5" d="M14.844,0.143c-8.271,0-15,6.729-15,15c0,8.271,6.729,15,15,15c8.271,0,15-6.729,15-15
			C29.844,6.872,23.115,0.143,14.844,0.143z M14.844,27.725c-6.938,0-12.583-5.645-12.583-12.583S7.906,2.56,14.844,2.56
			c6.938,0,12.582,5.645,12.582,12.583C27.426,22.08,21.781,27.725,14.844,27.725z"/>
		<path fill="#5225B5" d="M19.625,10.359l-7.001,7.002l-2.562-2.562c-0.472-0.472-1.237-0.472-1.708,0
			c-0.473,0.472-0.473,1.238,0,1.708l3.417,3.418c0.236,0.235,0.545,0.354,0.855,0.354c0.309,0,0.618-0.117,0.854-0.354l7.855-7.857
			c0.473-0.472,0.473-1.237,0-1.709C20.862,9.888,20.098,9.888,19.625,10.359z"/>
	</g>
</g>
</svg>
