<svg xmlns="http://www.w3.org/2000/svg" width="26.473" height="26.473" viewBox="0 0 26.473 26.473">
  <g id="coronavirus_1_" data-name="coronavirus (1)" transform="translate(-80.551 -97.894)">
    <path id="Path_9560" data-name="Path 9560" d="M319.66,273.067a1.771,1.771,0,1,0,.519,1.253A1.76,1.76,0,0,0,319.66,273.067Zm-.8,1.707a.642.642,0,1,1,.188-.454A.638.638,0,0,1,318.862,274.774Z" transform="translate(-221.603 -166.206)" fill="#fff"/>
    <path id="Path_9561" data-name="Path 9561" d="M238.257,276.1a1.771,1.771,0,1,0-1.253-.518A1.766,1.766,0,0,0,238.257,276.1Zm-.454-2.225a.642.642,0,1,1,0,.908A.643.643,0,0,1,237.8,273.876Z" transform="translate(-147.487 -166.217)" fill="#fff"/>
    <path id="Path_9562" data-name="Path 9562" d="M318.407,356.251a1.772,1.772,0,1,0-1.253-.519,1.76,1.76,0,0,0,1.253.519Zm-.454-2.226a.642.642,0,1,1-.188.454A.638.638,0,0,1,317.953,354.025Z" transform="translate(-221.603 -240.332)" fill="#fff"/>
    <path id="Path_9563" data-name="Path 9563" d="M237,360.077a1.774,1.774,0,0,0,2.505,0,.565.565,0,0,0-.8-.8.642.642,0,0,1-.908-.908.565.565,0,0,0-.8-.8,1.773,1.773,0,0,0,0,2.505Z" transform="translate(-147.487 -244.677)" fill="#fff"/>
    <path id="Path_9564" data-name="Path 9564" d="M280.1,314.4a1.771,1.771,0,1,0-1.771,1.771A1.773,1.773,0,0,0,280.1,314.4Zm-1.771.642a.642.642,0,1,1,.642-.642A.643.643,0,0,1,278.328,315.043Z" transform="translate(-184.541 -203.27)" fill="#fff"/>
    <path id="Path_9565" data-name="Path 9565" d="M148.951,171.785a1.774,1.774,0,0,0-1.679,1.207h-1.4a8.354,8.354,0,0,0-.141-1.061l.64-.172a.565.565,0,0,0-.292-1.091l-.642.172a8.453,8.453,0,0,0-.411-.988l1.213-.7a1.762,1.762,0,0,0,.713.383,1.781,1.781,0,0,0,.461.061,1.772,1.772,0,1,0-1.739-1.422l-1.213.7a8.459,8.459,0,0,0-.65-.85l.47-.47a.565.565,0,1,0-.8-.8l-.469.469a8.39,8.39,0,0,0-.848-.653l.7-1.208a1.776,1.776,0,1,0-.977-.565l-.971,1.682a.565.565,0,0,0,.207.771l.014.007a7.241,7.241,0,1,1-1.769-.736.564.564,0,0,0,.691-.4l.312-1.164a.565.565,0,0,0-1.091-.292l-.171.638a8.449,8.449,0,0,0-1.062-.139v-1.4a1.771,1.771,0,1,0-1.129,0v1.4a8.371,8.371,0,0,0-1.062.139l-.171-.638a.565.565,0,0,0-1.091.292l.171.638a8.349,8.349,0,0,0-.989.411l-.7-1.211a1.77,1.77,0,1,0-1.786.54,1.781,1.781,0,0,0,.461.061,1.748,1.748,0,0,0,.348-.035l.7,1.211a8.464,8.464,0,0,0-.848.652l-.47-.47a.565.565,0,0,0-.8.8l.47.47a8.476,8.476,0,0,0-.652.848l-1.212-.7a1.776,1.776,0,1,0-.565.978l1.211.7a8.35,8.35,0,0,0-.411.989l-.638-.171a.565.565,0,1,0-.292,1.091l.638.171a8.392,8.392,0,0,0-.139,1.062h-1.4a1.771,1.771,0,1,0,0,1.129h1.4a8.376,8.376,0,0,0,.139,1.062l-.638.171a.565.565,0,1,0,.292,1.091l.638-.171a8.362,8.362,0,0,0,.411.989l-1.21.7a1.771,1.771,0,1,0,.565.978l1.212-.7a8.465,8.465,0,0,0,.652.848l-.47.47a.565.565,0,1,0,.8.8l.47-.47a8.476,8.476,0,0,0,.848.652l-.7,1.212a1.771,1.771,0,1,0,.978.565l.7-1.21a8.347,8.347,0,0,0,.989.411l-.171.638a.565.565,0,1,0,1.091.292l.171-.638a8.39,8.39,0,0,0,1.062.139v1.4a1.771,1.771,0,1,0,1.129,0v-1.4a8.379,8.379,0,0,0,1.062-.139l.171.638a.565.565,0,0,0,1.091-.292l-.171-.638a8.342,8.342,0,0,0,.989-.411l.7,1.21a1.772,1.772,0,1,0,.978-.565l-.7-1.212a8.449,8.449,0,0,0,.848-.652l.471.47a.565.565,0,1,0,.8-.8l-.471-.47a8.453,8.453,0,0,0,.652-.848l1.212.7a1.771,1.771,0,1,0,.564-.978l-1.21-.7a8.346,8.346,0,0,0,.411-.989l.638.171a.565.565,0,1,0,.292-1.091l-.638-.171a8.385,8.385,0,0,0,.139-1.062h1.4a1.771,1.771,0,1,0,1.678-2.336Zm-2.156-4.127a.642.642,0,1,1,.064.487A.638.638,0,0,1,146.8,167.658Zm-15.207-3.41a.642.642,0,0,1,.165-1.263.646.646,0,0,1,.167.022.642.642,0,0,1-.332,1.241Zm-3.864,4.2a.642.642,0,0,1-.332-1.241.645.645,0,0,1,.167-.022.642.642,0,0,1,.165,1.263Zm.155,11.4a.642.642,0,1,1,.235-.877A.643.643,0,0,1,127.879,179.845Zm4.432,3.961a.642.642,0,1,1,.064-.487A.638.638,0,0,1,132.31,183.807Zm11.465-.642a.643.643,0,1,1-.557-.321A.643.643,0,0,1,143.775,183.164Zm3.474-4.5a.642.642,0,1,1-.39.3A.638.638,0,0,1,147.249,178.669Zm-4.586-15.362a.642.642,0,1,1-.064.487.643.643,0,0,1,.064-.487Zm-5.176-1.857a.642.642,0,1,1-.642.642A.643.643,0,0,1,137.486,161.449ZM126.021,174.2a.642.642,0,1,1,.642-.642A.643.643,0,0,1,126.021,174.2Zm11.465,11.465a.642.642,0,1,1,.642-.642A.643.643,0,0,1,137.486,185.664ZM148.951,174.2a.642.642,0,1,1,.642-.642A.643.643,0,0,1,148.951,174.2Z" transform="translate(-43.699 -62.426)" fill="#fff"/>
    <path id="Path_9566" data-name="Path 9566" d="M293.681,257.081a.565.565,0,0,0-.565-.565h-.006a.565.565,0,1,0,.571.565Z" transform="translate(-199.329 -151.381)" fill="#fff"/>
    <path id="Path_9567" data-name="Path 9567" d="M221.045,328.661a.568.568,0,1,0,.006,0Z" transform="translate(-132.688 -218.095)" fill="#fff"/>
    <path id="Path_9568" data-name="Path 9568" d="M365.826,329.226a.565.565,0,0,0-.565-.565h-.006a.565.565,0,1,0,.571.565Z" transform="translate(-266.043 -218.095)" fill="#fff"/>
    <path id="Path_9569" data-name="Path 9569" d="M293.191,400.807a.568.568,0,1,0,.006,0Z" transform="translate(-199.403 -284.81)" fill="#fff"/>
  </g>
</svg>
