<?xml version="1.0" encoding="utf-8"?>
<!-- Generator: Adobe Illustrator 16.0.0, SVG Export Plug-In . SVG Version: 6.00 Build 0)  -->
<!DOCTYPE svg PUBLIC "-//W3C//DTD SVG 1.1//EN" "http://www.w3.org/Graphics/SVG/1.1/DTD/svg11.dtd">
<svg version="1.1" id="Layer_1" xmlns="http://www.w3.org/2000/svg" xmlns:xlink="http://www.w3.org/1999/xlink" x="0px" y="0px"
	 width="17px" height="17px" viewBox="0 0 17 17" enable-background="new 0 0 17 17" xml:space="preserve">
<g id="dashboard_4_" transform="translate(0 0)">
	<path id="Path_9547" fill="#B5CEEF" d="M6.552,5.667H1.24C0.555,5.667,0,5.112,0,4.427V1.24C0,0.556,0.555,0,1.24,0h5.312
		c0.685,0,1.24,0.556,1.24,1.24v3.187C7.792,5.112,7.237,5.667,6.552,5.667z M1.24,1.063c-0.098,0-0.177,0.079-0.177,0.177l0,0
		v3.187C1.065,4.523,1.144,4.6,1.24,4.6h5.312c0.098,0,0.177-0.08,0.177-0.177l0,0V1.24c0-0.098-0.079-0.177-0.177-0.177l0,0H1.24z"
		/>
	<path id="Path_9548" fill="#B5CEEF" d="M6.552,17H1.24C0.555,17,0,16.444,0,15.76V8.323c0-0.685,0.555-1.24,1.24-1.24h5.312
		c0.685,0,1.24,0.555,1.24,1.24v7.438C7.791,16.445,7.236,17,6.552,17z M1.24,8.146c-0.098,0-0.177,0.079-0.177,0.177l0,0v7.438
		c0,0.099,0.079,0.177,0.177,0.177l0,0h5.312c0.098,0,0.177-0.078,0.177-0.177l0,0V8.324c0-0.098-0.079-0.177-0.177-0.177
		c0,0,0,0,0,0L1.24,8.146z"/>
	<path id="Path_9549" fill="#B5CEEF" d="M15.76,17.001h-5.313C9.764,17,9.209,16.445,9.208,15.761v-3.187
		c0.001-0.685,0.556-1.24,1.239-1.24h5.314c0.684,0,1.238,0.556,1.239,1.24v3.188C17,16.446,16.445,17.001,15.76,17.001z
		 M10.447,12.4c-0.098,0-0.176,0.08-0.176,0.178l0,0v3.188c0,0.098,0.078,0.178,0.176,0.178l0,0h5.314
		c0.098,0,0.176-0.08,0.176-0.178l0,0v-3.187c0-0.098-0.078-0.177-0.176-0.177l0,0L10.447,12.4z"/>
	<path id="Path_9550" fill="#B5CEEF" d="M15.76,9.917h-5.313c-0.684-0.001-1.238-0.556-1.239-1.24V1.24
		C9.209,0.556,9.764,0,10.447,0h5.314C16.445,0,17,0.556,17.001,1.24v7.437C17,9.361,16.445,9.917,15.76,9.917z M10.447,1.063
		c-0.098,0-0.176,0.079-0.176,0.177l0,0v7.437c0,0.098,0.078,0.177,0.176,0.177l0,0h5.314c0.098,0,0.176-0.079,0.176-0.177l0,0V1.24
		c0-0.098-0.078-0.177-0.176-0.177l0,0H10.447z"/>
</g>
</svg>
