<?xml version="1.0" encoding="utf-8"?>
<!-- Generator: Adobe Illustrator 14.0.0, SVG Export Plug-In . SVG Version: 6.00 Build 43363)  -->
<!DOCTYPE svg PUBLIC "-//W3C//DTD SVG 1.1//EN" "http://www.w3.org/Graphics/SVG/1.1/DTD/svg11.dtd">
<svg version="1.1" id="Layer_1" xmlns="http://www.w3.org/2000/svg" xmlns:xlink="http://www.w3.org/1999/xlink" x="0px" y="0px"
	 width="18.293px" height="12.375px" viewBox="0 0 18.293 12.375" enable-background="new 0 0 18.293 12.375" xml:space="preserve">
<path fill="#8A7ABF" d="M14.395,4.006H13.52v-1.57c0-0.377-0.307-0.684-0.684-0.684H6.638L5.387,0H0.684C0.307,0,0,0.307,0,0.684
	v10.938h0.001C0,11.762,0.044,11.9,0.132,12.016c0.124,0.159,0.308,0.252,0.511,0.252h11.206c0.289,0,0.545-0.195,0.613-0.455
	l2.561-7.019V4.75C15.022,4.319,14.758,4.006,14.395,4.006z M0.829,1.466c0-0.092,0.079-0.167,0.177-0.167h4.278l1.205,1.606h6.212
	c0.099,0,0.177,0.077,0.177,0.169v1.44H3.415c-0.034,0-0.069,0.003-0.103,0.007c-0.235,0.037-0.429,0.2-0.487,0.408l-1.996,5.185
	V1.466z M11.689,11.212c-0.015,0.051-0.066,0.086-0.125,0.086H1.333c-0.056,0-0.088-0.029-0.103-0.045
	c-0.014-0.018-0.036-0.053-0.028-0.086l2.33-5.729c0.015-0.052,0.066-0.087,0.125-0.087h9.433h0.798
	c0.087,0,0.109,0.112,0.115,0.169L11.689,11.212z"/>
</svg>
