<svg xmlns="http://www.w3.org/2000/svg" width="16.013" height="15.359" viewBox="0 0 16.013 15.359">
  <path id="Path_14052" data-name="Path 14052" d="M65.478,150.97a3.183,3.183,0,0,0-1.84-1,17.007,17.007,0,0,0-3.32-.267,13.543,13.543,0,0,1-2.493-3.332,38.074,38.074,0,0,0,1-4.249,1.584,1.584,0,0,0-.336-1.288,1.436,1.436,0,0,0-1.1-.526h0a1.244,1.244,0,0,0-1.011.486c-.836,1.065-.265,3.644-.141,4.151a8.559,8.559,0,0,0,.527,1.5,22.731,22.731,0,0,1-1.813,4.262,14.941,14.941,0,0,0-4.352,2.4,1.764,1.764,0,0,0-.645,1.275,1.237,1.237,0,0,0,.462.911,1.537,1.537,0,0,0,1.015.371,1.674,1.674,0,0,0,1.062-.381,14.129,14.129,0,0,0,3.122-3.74,15.732,15.732,0,0,1,4.323-.828,24.344,24.344,0,0,0,3.089,2.517,1.983,1.983,0,0,0,2.486-.165A1.412,1.412,0,0,0,65.478,150.97Zm-13.621,3.55a.627.627,0,0,1-.789.029.292.292,0,0,1-.121-.188c0-.046.02-.22.321-.514A13.2,13.2,0,0,1,54,152.194,12.228,12.228,0,0,1,51.856,154.52Zm5.3-13.108a.253.253,0,0,1,.229-.106.442.442,0,0,1,.338.167.578.578,0,0,1,.123.469h0c-.119.642-.308,1.662-.62,2.874l-.027-.105C56.941,143.648,56.757,141.922,57.157,141.412ZM56.3,150.28a23.849,23.849,0,0,0,1.106-2.629,14.878,14.878,0,0,0,1.619,2.129A16.512,16.512,0,0,0,56.3,150.28Zm8.52,2.074a.983.983,0,0,1-1.233.062,24.013,24.013,0,0,1-2.186-1.7,15.891,15.891,0,0,1,2.063.233,2.187,2.187,0,0,1,1.267.673C65.116,152.068,64.944,152.234,64.818,152.354Z" transform="translate(-49.95 -140.311)" fill="#e56353"/>
</svg>
