<svg xmlns="http://www.w3.org/2000/svg" width="42" height="42" viewBox="0 0 42 42">
  <g id="Group_4250" data-name="Group 4250" transform="translate(-583 -90)">
    <circle id="Ellipse_1673" data-name="Ellipse 1673" cx="21" cy="21" r="21" transform="translate(583 90)" fill="#eee"/>
    <g id="download" transform="translate(592 82.75)">
      <g id="Group_4196" data-name="Group 4196" transform="translate(0 17.25)">
        <path id="Path_14040" data-name="Path 14040" d="M22.48,228.248a.66.66,0,0,0-.663.663v6.031a2.976,2.976,0,0,1-2.972,2.972H4.3a2.976,2.976,0,0,1-2.972-2.972v-6.13a.663.663,0,1,0-1.326,0v6.13a4.3,4.3,0,0,0,4.3,4.3H18.846a4.3,4.3,0,0,0,4.3-4.3v-6.031A.663.663,0,0,0,22.48,228.248Z" transform="translate(0 -217.791)" fill="#3a3a3a"/>
        <path id="Path_14041" data-name="Path 14041" d="M140.639,33.434a.667.667,0,0,0,.467.2.647.647,0,0,0,.467-.2l4.214-4.214a.663.663,0,1,0-.938-.938l-3.08,3.084V17.913a.663.663,0,0,0-1.326,0V31.366l-3.084-3.084a.663.663,0,1,0-.938.938Z" transform="translate(-129.534 -17.25)" fill="#3a3a3a"/>
      </g>
    </g>
  </g>
</svg>
