<?xml version="1.0" encoding="utf-8"?>
<!-- Generator: Adobe Illustrator 19.1.1, SVG Export Plug-In . SVG Version: 6.00 Build 0)  -->
<svg version="1.1" id="Layer_1" focusable="false" xmlns="http://www.w3.org/2000/svg" xmlns:xlink="http://www.w3.org/1999/xlink"
	 x="0px" y="0px" viewBox="-49 141 512 512" style="enable-background:new -49 141 512 512;" xml:space="preserve">
<style type="text/css">
	.st0{fill:#5225B5;}
</style>
<path class="st0" d="M167,141h80c13.3,0,24,10.7,24,24v168h87.7c17.8,0,26.7,21.5,14.1,34.1L220.7,519.3c-7.5,7.5-19.8,7.5-27.3,0
	L41.1,367.1C28.5,354.5,37.4,333,55.2,333H143V165C143,151.7,153.7,141,167,141z M463,517v112c0,13.3-10.7,24-24,24H-25
	c-13.3,0-24-10.7-24-24V517c0-13.3,10.7-24,24-24h146.7l49,49c20.1,20.1,52.5,20.1,72.6,0l49-49H439C452.3,493,463,503.7,463,517z
	 M339,605c0-11-9-20-20-20s-20,9-20,20s9,20,20,20S339,616,339,605z M403,605c0-11-9-20-20-20s-20,9-20,20s9,20,20,20
	S403,616,403,605z"/>
</svg>
