<?xml version="1.0" encoding="utf-8"?>
<!-- Generator: Adobe Illustrator 14.0.0, SVG Export Plug-In . SVG Version: 6.00 Build 43363)  -->
<!DOCTYPE svg PUBLIC "-//W3C//DTD SVG 1.1//EN" "http://www.w3.org/Graphics/SVG/1.1/DTD/svg11.dtd">
<svg version="1.1" id="Layer_1" xmlns="http://www.w3.org/2000/svg" xmlns:xlink="http://www.w3.org/1999/xlink" x="0px" y="0px"
	 width="16px" height="16px" viewBox="0 0 16 16" enable-background="new 0 0 16 16" xml:space="preserve">
<path fill="#595959" d="M14.268,1.732c-0.879-0.88-2.313-0.88-3.192,0l-9.042,9.043c-0.003,0.004-0.007,0.01-0.011,0.013
	c-0.004,0.006-0.009,0.015-0.014,0.019c-0.014,0.021-0.023,0.039-0.03,0.063c-0.003,0.005-0.006,0.013-0.008,0.019
	c-0.001,0.002-0.003,0.006-0.003,0.008l-0.886,3.723c-0.005,0.019-0.005,0.034-0.005,0.05c0,0.004-0.001,0.009-0.001,0.013
	c0,0.027,0.007,0.054,0.017,0.082c0.001,0.006,0.003,0.012,0.007,0.019c0.013,0.025,0.027,0.054,0.05,0.073
	C1.171,14.879,1.2,14.897,1.23,14.91c0.029,0.013,0.063,0.021,0.094,0.021c0.02,0,0.04-0.003,0.06-0.01l3.722-0.885
	c0.007-0.003,0.015-0.005,0.02-0.008c0.01-0.004,0.017-0.006,0.024-0.009c0.02-0.01,0.036-0.019,0.051-0.03
	c0.007-0.007,0.011-0.01,0.017-0.016c0.001-0.003,0.006-0.003,0.007-0.004l9.042-9.044C15.146,4.043,15.146,2.612,14.268,1.732z
	 M13.912,2.087c0.622,0.623,0.676,1.603,0.163,2.29l-2.453-2.453C12.308,1.411,13.288,1.465,13.912,2.087z M12.671,5.811
	l-2.482-2.483l0.355-0.354l2.48,2.483L12.671,5.811z M2.317,13.682c-0.098-0.098-0.256-0.098-0.355,0l-0.19,0.191l0.642-2.691
	l1.108-0.123l-0.143,1.283c0,0.01,0.003,0.021,0.003,0.028s-0.003,0.017-0.003,0.028c0.002,0.007,0.006,0.014,0.007,0.021
	c0.003,0.015,0.007,0.027,0.013,0.042c0.006,0.016,0.015,0.029,0.024,0.043c0.007,0.013,0.015,0.023,0.025,0.033
	c0.013,0.012,0.025,0.024,0.04,0.032c0.011,0.01,0.021,0.017,0.034,0.023c0.017,0.007,0.033,0.01,0.051,0.017
	c0.01,0.002,0.018,0.008,0.027,0.009c0.009,0,0.019,0,0.027,0l0,0l0,0l0,0l0,0c0.009,0,0.02,0,0.027,0l1.285-0.145l-0.124,1.111
	l-2.688,0.64l0.19-0.188C2.416,13.938,2.416,13.779,2.317,13.682z M5.465,12.308l5.611-5.611c0.098-0.098,0.098-0.257,0-0.354
	s-0.255-0.098-0.353,0l-5.612,5.611l-1.196,0.133l0.131-1.196l5.612-5.611c0.101-0.099,0.101-0.257,0-0.355
	c-0.098-0.098-0.256-0.098-0.354,0l-5.611,5.611l-0.801,0.089l6.941-6.941l2.482,2.481l-6.941,6.943L5.465,12.308z M13.381,5.101
	L10.9,2.62l0.352-0.354l2.483,2.481L13.381,5.101z"/>
</svg>
