<?xml version="1.0" encoding="utf-8"?>
<!-- Generator: Adobe Illustrator 16.0.0, SVG Export Plug-In . SVG Version: 6.00 Build 0)  -->
<!DOCTYPE svg PUBLIC "-//W3C//DTD SVG 1.1//EN" "http://www.w3.org/Graphics/SVG/1.1/DTD/svg11.dtd">
<svg version="1.1" id="Layer_1" xmlns="http://www.w3.org/2000/svg" xmlns:xlink="http://www.w3.org/1999/xlink" x="0px" y="0px"
	 width="512px" height="512px" viewBox="0 0 512 512" enable-background="new 0 0 512 512" xml:space="preserve">
<path fill="#FFFFFF" d="M405.332,256.985c-11.797,0-21.332,9.559-21.332,21.332v170.668c0,11.754-9.559,21.332-21.332,21.332H64
	c-11.777,0-21.332-9.578-21.332-21.332V150.317c0-11.754,9.555-21.332,21.332-21.332h170.668c11.797,0,21.332-9.559,21.332-21.332
	c0-11.777-9.535-21.336-21.332-21.336H64c-35.285,0-64,28.715-64,64v298.668c0,35.285,28.715,64,64,64h298.668
	c35.285,0,64-28.715,64-64V278.317C426.668,266.52,417.129,256.985,405.332,256.985z"/>
<path fill="#FFFFFF" d="M200.02,237.551c-1.492,1.492-2.496,3.391-2.922,5.438l-15.082,75.438c-0.703,3.496,0.406,7.102,2.922,9.641
	c2.027,2.027,4.758,3.113,7.555,3.113c0.68,0,1.387-0.063,2.09-0.211l75.414-15.082c2.09-0.43,3.988-1.43,5.461-2.926
	l168.789-168.789l-75.414-75.41L200.02,237.551z"/>
<path fill="#FFFFFF" d="M496.383,16.602c-20.797-20.801-54.633-20.801-75.414,0l-29.523,29.523l75.414,75.414l29.523-29.527
	C506.453,81.965,512,68.567,512,54.317S506.453,26.668,496.383,16.602z"/>
</svg>
