<?xml version="1.0" encoding="utf-8"?>
<!-- Generator: Adobe Illustrator 14.0.0, SVG Export Plug-In . SVG Version: 6.00 Build 43363)  -->
<!DOCTYPE svg PUBLIC "-//W3C//DTD SVG 1.1//EN" "http://www.w3.org/Graphics/SVG/1.1/DTD/svg11.dtd">
<svg version="1.1" id="Layer_1" xmlns="http://www.w3.org/2000/svg" xmlns:xlink="http://www.w3.org/1999/xlink" x="0px" y="0px"
	 width="18px" height="18px" viewBox="0 0 18 18" enable-background="new 0 0 18 18" xml:space="preserve">
<g>
	<g>
		<path fill="#B7B7B7" d="M15.812,2.131H2.263c-1.209,0-2.192,0.983-2.192,2.192v9.26c0,1.209,0.983,2.192,2.192,2.192h13.544
			c1.211,0,2.192-0.983,2.192-2.192V4.327C18.004,3.118,17.021,2.131,15.812,2.131z M17.002,13.583c0,0.656-0.534,1.19-1.19,1.19
			H2.263c-0.656,0-1.19-0.534-1.19-1.19V4.327c0-0.657,0.534-1.192,1.19-1.192h13.544c0.656,0,1.19,0.535,1.19,1.192v9.256H17.002z"
			/>
		<path fill="#B7B7B7" d="M11.379,8.837l4.384-3.931c0.205-0.186,0.224-0.502,0.037-0.709c-0.185-0.205-0.501-0.222-0.708-0.037
			L9.044,9.588L7.866,8.533C7.862,8.53,7.858,8.526,7.858,8.522c-0.026-0.025-0.052-0.049-0.083-0.07l-4.8-4.296
			C2.768,3.971,2.453,3.989,2.268,4.197C2.082,4.404,2.1,4.72,2.307,4.906l4.438,3.966l-4.417,4.136
			c-0.201,0.189-0.211,0.505-0.022,0.708c0.1,0.104,0.234,0.159,0.367,0.159c0.124,0,0.246-0.044,0.341-0.133l4.485-4.195
			l1.217,1.087C8.812,10.719,8.93,10.76,9.05,10.76c0.118,0,0.24-0.045,0.332-0.129l1.251-1.121l4.459,4.236
			c0.097,0.092,0.224,0.137,0.344,0.137c0.135,0,0.265-0.052,0.364-0.155c0.19-0.2,0.182-0.52-0.019-0.709L11.379,8.837z"/>
	</g>
</g>
</svg>
