<?xml version="1.0" encoding="utf-8"?>
<!-- Generator: Adobe Illustrator 14.0.0, SVG Export Plug-In . SVG Version: 6.00 Build 43363)  -->
<!DOCTYPE svg PUBLIC "-//W3C//DTD SVG 1.1//EN" "http://www.w3.org/Graphics/SVG/1.1/DTD/svg11.dtd">
<svg version="1.1" id="Layer_1" xmlns="http://www.w3.org/2000/svg" xmlns:xlink="http://www.w3.org/1999/xlink" x="0px" y="0px"
	 width="16px" height="16px" viewBox="0 0 16 16" enable-background="new 0 0 16 16" xml:space="preserve">
<g>
	<path fill="#FB0808" d="M8,16c-4.411,0-8-3.589-8-8s3.589-8,8-8s8,3.589,8,8S12.411,16,8,16z M8,1.143
		C4.219,1.143,1.143,4.219,1.143,8c0,3.781,3.077,6.857,6.857,6.857c3.781,0,6.857-3.076,6.857-6.857
		C14.857,4.219,11.781,1.143,8,1.143z"/>
	<path fill="#FB0808" d="M8,13.143c-0.149,0-0.297-0.063-0.406-0.166c-0.103-0.107-0.166-0.257-0.166-0.405s0.063-0.297,0.166-0.405
		c0.16-0.16,0.417-0.212,0.623-0.121c0.069,0.029,0.132,0.069,0.189,0.121c0.103,0.108,0.166,0.257,0.166,0.405
		s-0.063,0.298-0.166,0.405c-0.057,0.052-0.12,0.092-0.189,0.121C8.148,13.125,8.074,13.143,8,13.143z"/>
	<path fill="#FB0808" d="M8,10.857c-0.315,0-0.571-0.256-0.571-0.572L6.429,4c0-0.315,1.256-0.571,1.571-0.571S9.571,3.685,9.571,4
		l-1,6.285C8.571,10.602,8.315,10.857,8,10.857z"/>
</g>
</svg>
