<svg xmlns="http://www.w3.org/2000/svg" width="23.777" height="20.712" viewBox="0 0 23.777 20.712">
  <g id="heartbeat" transform="translate(0 -33)">
    <g id="Group_4098" data-name="Group 4098" transform="translate(0 33)">
      <path id="Path_9581" data-name="Path 9581" d="M17.461,33a5.95,5.95,0,0,0-4.941,2.706,9.053,9.053,0,0,0-.632,1.024,9.053,9.053,0,0,0-.632-1.024A5.95,5.95,0,0,0,6.316,33,6.45,6.45,0,0,0,0,39.746c0,4.141,3.365,6.975,8.458,11.265.949.8,1.93,1.625,2.974,2.531a.7.7,0,0,0,.912,0c1.045-.905,2.026-1.732,2.974-2.531,5.093-4.29,8.458-7.124,8.458-11.265A6.45,6.45,0,0,0,17.461,33Zm-3.04,16.945c-.813.685-1.651,1.39-2.533,2.15-.882-.759-1.72-1.464-2.533-2.15A43.725,43.725,0,0,1,3.021,43.96H6.316a.7.7,0,0,0,.623-.385l.77-1.54,2.163,4.327a.7.7,0,0,0,1.246,0l.77-1.54.77,1.54a.7.7,0,0,0,1.246,0l2.163-4.327.77,1.54a.692.692,0,0,0,.623.38h3.295A43.717,43.717,0,0,1,14.421,49.945Zm3.47-7.379-1.2-2.4a.7.7,0,0,0-1.246,0l-2.163,4.327-.77-1.54a.7.7,0,0,0-1.246,0l-.77,1.54L8.332,40.165a.7.7,0,0,0-1.246,0l-1.2,2.4H2.121a5.992,5.992,0,0,1-.728-2.821,5.038,5.038,0,0,1,4.923-5.353A4.544,4.544,0,0,1,10.1,36.485a7.978,7.978,0,0,1,1.117,2.229.7.7,0,0,0,1.342,0c.012-.043,1.238-4.319,4.9-4.319a5.038,5.038,0,0,1,4.923,5.353,5.992,5.992,0,0,1-.728,2.821Z" transform="translate(0 -33)" fill="#fff"/>
    </g>
  </g>
</svg>
