<svg xmlns="http://www.w3.org/2000/svg" width="22.761" height="17.07" viewBox="0 0 22.761 17.07">
  <g id="hide" transform="translate(0 0)">
    <g id="Group_3945" data-name="Group 3945" transform="translate(8.56 5.714)">
      <g id="Group_3944" data-name="Group 3944" transform="translate(0 0)">
        <path id="Path_5117" data-name="Path 5117" d="M198.053,192.681a.474.474,0,1,0-.671.671,2.845,2.845,0,1,1-4.023,4.023.474.474,0,1,0-.671.671,3.793,3.793,0,1,0,5.364-5.364Z" transform="translate(-192.55 -192.542)" fill="#b2b2b2"/>
      </g>
    </g>
    <g id="Group_3947" data-name="Group 3947" transform="translate(7.587 4.741)">
      <g id="Group_3946" data-name="Group 3946">
        <path id="Path_5118" data-name="Path 5118" d="M175.122,170.724a3.756,3.756,0,0,0-4.454,3.728,3.712,3.712,0,0,0,.066.661.475.475,0,0,0,.466.392.42.42,0,0,0,.083-.008.475.475,0,0,0,.384-.549,2.751,2.751,0,0,1-.051-.5,2.811,2.811,0,0,1,3.341-2.795.474.474,0,0,0,.165-.933Z" transform="translate(-170.668 -170.659)" fill="#b2b2b2"/>
      </g>
    </g>
    <g id="Group_3949" data-name="Group 3949" transform="translate(5.932 3.221)">
      <g id="Group_3948" data-name="Group 3948" transform="translate(0 0)">
        <path id="Path_5119" data-name="Path 5119" d="M150.151,141.469a23.035,23.035,0,0,0-6.211-4.954.474.474,0,0,0-.435.843,22.284,22.284,0,0,1,5.647,4.418c-1.13,1.224-5.579,5.69-10.269,5.69a10.933,10.933,0,0,1-4.768-1.143.474.474,0,0,0-.412.854,11.858,11.858,0,0,0,5.18,1.238c5.843,0,11.049-6.073,11.268-6.332A.474.474,0,0,0,150.151,141.469Z" transform="translate(-133.435 -136.461)" fill="#b2b2b2"/>
      </g>
    </g>
    <g id="Group_3951" data-name="Group 3951" transform="translate(0 1.896)">
      <g id="Group_3950" data-name="Group 3950" transform="translate(0 0)">
        <path id="Path_5120" data-name="Path 5120" d="M14.491,107.205a9.792,9.792,0,0,0-3.112-.546c-5.843,0-11.049,6.073-11.268,6.332a.474.474,0,0,0-.027.578,17.6,17.6,0,0,0,4.35,4.124.471.471,0,0,0,.656-.134.473.473,0,0,0-.133-.656,17.342,17.342,0,0,1-3.872-3.58c1.092-1.185,5.57-5.716,10.293-5.716a8.876,8.876,0,0,1,2.809.5.468.468,0,0,0,.6-.3A.473.473,0,0,0,14.491,107.205Z" transform="translate(0 -106.659)" fill="#b2b2b2"/>
      </g>
    </g>
    <g id="Group_3953" data-name="Group 3953" transform="translate(2.845 0)">
      <g id="Group_3952" data-name="Group 3952" transform="translate(0 0)">
        <path id="Path_5121" data-name="Path 5121" d="M80.927,64.147a.475.475,0,0,0-.671,0L64.135,80.269a.474.474,0,0,0,.671.671L80.927,64.817A.475.475,0,0,0,80.927,64.147Z" transform="translate(-63.996 -64.008)" fill="#b2b2b2"/>
      </g>
    </g>
  </g>
</svg>
