<?xml version="1.0" encoding="utf-8"?>
<!-- Generator: Adobe Illustrator 14.0.0, SVG Export Plug-In . SVG Version: 6.00 Build 43363)  -->
<!DOCTYPE svg PUBLIC "-//W3C//DTD SVG 1.1//EN" "http://www.w3.org/Graphics/SVG/1.1/DTD/svg11.dtd">
<svg version="1.1" id="Layer_1" xmlns="http://www.w3.org/2000/svg" xmlns:xlink="http://www.w3.org/1999/xlink" x="0px" y="0px"
	 width="29px" height="38.057px" viewBox="0 0 29 38.057" enable-background="new 0 0 29 38.057" xml:space="preserve">
<polygon fill="#FACC07" points="14,0 15.479,2.996 18.784,3.476 16.393,5.808 16.958,9.101 14,7.546 11.043,9.101 11.608,5.808 
	9.215,3.476 12.521,2.996 "/>
<polygon fill="#FACC07" points="23.109,4.037 24.116,6.075 26.363,6.402 24.736,7.988 25.122,10.228 23.109,9.171 21.1,10.228 
	21.482,7.988 19.854,6.402 22.104,6.075 "/>
<polygon fill="#FACC07" points="4.89,4.694 5.789,6.515 7.8,6.808 6.345,8.226 6.688,10.228 4.89,9.283 3.092,10.228 3.436,8.226 
	1.98,6.808 3.991,6.515 "/>
<path fill="#FACC07" d="M23.946,21.967c1.327-0.734,2.241-2.172,2.241-3.841c0-2.41-1.883-4.371-4.197-4.371
	c-0.717,0-1.383,0.207-1.976,0.538c-0.296-2.939-2.69-5.236-5.588-5.236c-2.934,0-5.347,2.353-5.596,5.343
	c-0.634-0.4-1.368-0.645-2.163-0.645c-2.313,0-4.197,1.96-4.197,4.371c0,1.75,1.003,3.255,2.436,3.952
	c-2.729,0.867-4.705,3.322-4.725,6.233v6.466c0.018,0.355,0.32,0.635,0.69,0.638l4.867-0.006v1.795
	c0.022,0.476,0.432,0.851,0.925,0.854l16.228-0.021c0.496-0.003,0.901-0.378,0.926-0.853v-1.78l4.493-0.006
	c0.371-0.004,0.674-0.283,0.689-0.637v-6.467C28.984,25.268,26.846,22.734,23.946,21.967z M20.021,15.448
	c0.549-0.439,1.227-0.71,1.969-0.71c1.796,0,3.256,1.52,3.256,3.388c0,1.866-1.46,3.386-3.256,3.386
	c-1.639,0-2.984-1.271-3.207-2.914C19.47,17.721,19.916,16.635,20.021,15.448z M14.427,10.372c2.401,0,4.356,2.034,4.356,4.536
	c0,0.169-0.031,0.33-0.048,0.494c-0.498,0.643-0.819,1.43-0.9,2.297c-0.799,1.054-2.021,1.744-3.408,1.744
	c-1.515,0-2.849-0.81-3.629-2.034c-0.102-0.631-0.321-1.222-0.654-1.731c-0.041-0.252-0.074-0.507-0.074-0.77
	C10.069,12.406,12.023,10.372,14.427,10.372z M18.521,20.579c-0.461-0.209-0.939-0.383-1.439-0.518
	c0.328-0.184,0.637-0.399,0.922-0.645C18.127,19.832,18.292,20.228,18.521,20.579z M12.052,20.202
	c-1.219,0.39-2.321,1.02-3.255,1.826c-0.058-0.018-0.112-0.046-0.172-0.062c1.007-0.559,1.774-1.521,2.087-2.682
	C11.112,19.653,11.562,19.963,12.052,20.202z M3.415,18.125c0-1.868,1.46-3.388,3.253-3.388c0.847,0,1.61,0.345,2.189,0.897
	c0.121,1.008,0.492,1.93,1.044,2.711c-0.111,1.761-1.512,3.166-3.233,3.166C4.875,21.511,3.415,19.991,3.415,18.125z M5.739,28.545
	v5.611l-4.254,0.007v-5.851c0.023-2.946,2.519-5.324,5.588-5.322c0-0.003,0-0.006,0-0.008c0.237,0.011,0.462,0.059,0.69,0.098
	C6.512,24.579,5.754,26.475,5.739,28.545z M22.07,36.363L7.485,36.383v-7.836c0.015-1.885,0.791-3.59,2.038-4.861
	c0.438-0.496,0.314-0.368,1.032-0.875c1.237-0.87,2.76-1.39,4.411-1.389c0-0.003,0-0.007,0-0.013
	c1.439,0.068,2.771,0.531,3.886,1.274c0.596,0.409,0.611,0.329,1.069,0.865c1.314,1.282,2.135,3.037,2.148,4.979V36.363z
	 M27.699,34.147l-3.882,0.006v-5.627c-0.015-2.085-0.783-3.994-2.049-5.5c0.206-0.021,0.413-0.035,0.625-0.035
	c0-0.003,0-0.006,0-0.008c2.939,0.138,5.284,2.459,5.306,5.314V34.147z"/>
</svg>
