<svg id="Group_3960" data-name="Group 3960" xmlns="http://www.w3.org/2000/svg" width="438" height="54" viewBox="0 0 438 54">
  <g id="Group_3956" data-name="Group 3956">
    <path id="Path_5122" data-name="Path 5122" d="M.009,24.418A22.813,22.813,0,0,0,20.868,45.737a21.619,21.619,0,0,0,16.107-4.789,23.437,23.437,0,0,0,4.925-5.6c.988-1.463,3.156-5.124,3.085-7.467L32.34,27.88a12.389,12.389,0,0,1-4.468,4.692,10.807,10.807,0,0,1-13.318-2.579c-5.223-6.675-1.329-15.883,5.192-17.42a12.188,12.188,0,0,1,7.805.676A11.907,11.907,0,0,1,32.212,17.7L45,17.712c.116-1.449-2.088-5.8-2.755-6.865A21.676,21.676,0,0,0,31.821,1.9,29.277,29.277,0,0,0,24.089.034,24.018,24.018,0,0,0,8.212,5.416c-.293.253-.571.449-.846.721A23.682,23.682,0,0,0,.009,24.418Z" transform="translate(0 0)" fill="#005ba6" fill-rule="evenodd"/>
    <path id="Path_5123" data-name="Path 5123" d="M41.475,14.553a6.818,6.818,0,0,1,7.319,5.8,6.608,6.608,0,1,1-7.319-5.8ZM23.695,4.288l.011,42.619,11.861-.051,0-12.2c1.872,1.869,4.99,3.7,7.819,3.638a16.823,16.823,0,0,0,9.038-2.46A17.121,17.121,0,0,0,58.3,12.206c-2.707-4.658-8.774-8.541-14.7-8.345a9.913,9.913,0,0,0-6.4,2.272c-.542.415-1.119,1-1.627,1.315l-.006-3.141-11.872-.02Z" transform="translate(43.607 7.093)" fill="#005ba6" fill-rule="evenodd"/>
    <path id="Path_5124" data-name="Path 5124" d="M61.812,14.545a6.792,6.792,0,0,1,5.016,1.505A6.613,6.613,0,0,1,63.275,27.7a6.816,6.816,0,0,1-7.433-5.857,6.681,6.681,0,0,1,5.97-7.294Zm7.4,23.265,12.2,0L81.408,4.2,69.226,4.2,69.2,7.362A11.836,11.836,0,0,0,65.976,5.03c-4.553-2.159-9.8-.878-13.639,1.426a15.339,15.339,0,0,0-5.681,5.675,17.31,17.31,0,0,0-2.573,8.919,17.058,17.058,0,0,0,2.494,8.9A16.727,16.727,0,0,0,61.2,38.213a10.1,10.1,0,0,0,6.391-2.125L69.2,34.8l.014,3.008Z" transform="translate(81.102 7.22)" fill="#005ba6" fill-rule="evenodd"/>
    <path id="Path_5125" data-name="Path 5125" d="M38.349,44.778l11.847.036L50.179.086,38.338.095l.011,44.683Z" transform="translate(70.555 0.159)" fill="#005ba6" fill-rule="evenodd"/>
    <path id="Path_5126" data-name="Path 5126" d="M17.565,37.37c1.378.142,9.248.08,11.41,0L29.011,4.46c0-.517-.653-.383-1.133-.372-1.659.04-9.864-.162-10.151.119-.358.358-.131,4.621-.131,5.459L17.562,36.64l0,.73Z" transform="translate(32.252 7.461)" fill="#005ba6" fill-rule="evenodd"/>
    <path id="Path_5127" data-name="Path 5127" d="M17.672,7.321c.469.119,8.785.111,10.6.051l.6-.114a.278.278,0,0,0,.091-.04A50.611,50.611,0,0,0,28.939.178L17.961.189c-.633,0-.375.852-.372,1.4a52.245,52.245,0,0,0,.082,5.729Z" transform="translate(32.27 0.327)" fill="#005ba6" fill-rule="evenodd"/>
  </g>
  <line id="Line_1" data-name="Line 1" y2="36.018" transform="translate(182.254 9.307)" fill="none" stroke="#acacac" stroke-width="1"/>
  <text id="Lenalidomide" transform="translate(198 42)" fill="#545454" font-size="35" font-family="Poppins-Medium, Poppins" font-weight="500"><tspan x="0" y="0">Lenalidomide</tspan></text>
</svg>
