<?xml version="1.0" encoding="utf-8"?>
<!-- Generator: Adobe Illustrator 14.0.0, SVG Export Plug-In . SVG Version: 6.00 Build 43363)  -->
<!DOCTYPE svg PUBLIC "-//W3C//DTD SVG 1.1//EN" "http://www.w3.org/Graphics/SVG/1.1/DTD/svg11.dtd">
<svg version="1.1" id="Layer_1" xmlns="http://www.w3.org/2000/svg" xmlns:xlink="http://www.w3.org/1999/xlink" x="0px" y="0px"
	 width="30px" height="29.25px" viewBox="0 0 30 29.25" enable-background="new 0 0 30 29.25" xml:space="preserve">
<path fill="#FFFFFF" d="M0.641,21.344c0.241,0,0.609-0.223,0.609-0.465V8.172l25.047,0.031v4.796c0,0.241,0.449,0.517,0.688,0.517
	c0.242,0,0.561-0.264,0.561-0.505V4.388c0-1.462-1.188-2.652-2.65-2.652H23.75V1.195c0-0.583-0.475-1.06-1.061-1.06h-0.811
	c-0.584,0-1.059,0.476-1.059,1.06v0.541h-2.893V1.195c0-0.583-0.477-1.06-1.061-1.06h-0.811c-0.584,0-1.06,0.476-1.06,1.06v0.541
	h-2.894V1.195c0-0.583-0.475-1.06-1.06-1.06h-0.81c-0.584,0-1.06,0.476-1.06,1.06v0.541H6.28V1.195c0-0.583-0.476-1.06-1.06-1.06
	H4.409c-0.584,0-1.06,0.476-1.06,1.06v0.541H2.677c-1.462,0-2.653,1.189-2.653,2.652v16.534C0.024,21.163,0.399,21.344,0.641,21.344
	z M21.693,1.223c0-0.119,0.084-0.215,0.186-0.215h0.811c0.105,0,0.188,0.097,0.188,0.215v2.438c0,0.119-0.082,0.216-0.188,0.216
	h-0.811c-0.102,0-0.186-0.096-0.186-0.216V1.223z M15.871,1.223c0-0.119,0.082-0.215,0.186-0.215h0.811
	c0.104,0,0.188,0.097,0.188,0.215v2.438c0,0.119-0.084,0.216-0.188,0.216h-0.811c-0.104,0-0.186-0.096-0.186-0.216V1.223z
	 M10.045,1.195c0-0.103,0.084-0.187,0.188-0.187h0.811c0.104,0,0.187,0.084,0.187,0.187v2.12c0,0.103-0.083,0.188-0.187,0.188
	h-0.811c-0.104,0-0.188-0.083-0.188-0.188V1.195z M4.223,1.223c0-0.119,0.084-0.215,0.187-0.215H5.22
	c0.104,0,0.187,0.097,0.187,0.215v2.438c0,0.119-0.083,0.216-0.187,0.216H4.409c-0.103,0-0.187-0.096-0.187-0.216V1.223z
	 M2.981,3.141h0.654v0.626c0,0.52,0.462,0.941,1.031,0.941h0.789c0.568,0,1.031-0.422,1.031-0.941V3.141h2.814v0.626
	c0,0.52,0.462,0.941,1.031,0.941h0.789c0.568,0,1.03-0.422,1.03-0.941V3.141h2.814v0.626c0,0.52,0.462,0.941,1.031,0.941h0.789
	c0.567,0,1.031-0.422,1.031-0.941V3.141h2.813v0.626c0,0.52,0.461,0.941,1.029,0.941h0.788c0.57,0,1.032-0.422,1.032-0.941V3.141
	h1.112c0.956,0,1.732,0.709,1.732,1.579v2.622H1.25V4.72C1.25,3.85,2.026,3.141,2.981,3.141z"/>
<path fill="#FFFFFF" d="M5.172,25.234H1.441c-0.145,0-0.207,0.065-0.207-0.078v-2.203c0-0.238-0.369-0.479-0.609-0.479
	c-0.241,0-0.601,0.195-0.601,0.434v2.245c0,0.624,0.509,1.135,1.135,1.135h3.903c0.241,0,0.5-0.221,0.5-0.46
	C5.563,25.587,5.413,25.234,5.172,25.234z"/>
<path fill="#FFFFFF" d="M4.949,9.486H3.433c-0.241,0-0.437,0.242-0.437,0.538c0,0.297,0.196,0.538,0.437,0.538h1.517
	c0.241,0,0.436-0.241,0.436-0.538C5.385,9.729,5.19,9.486,4.949,9.486z"/>
<path fill="#FFFFFF" d="M8.093,10.563h1.516c0.241,0,0.437-0.241,0.437-0.538c0-0.296-0.195-0.538-0.437-0.538H8.093
	c-0.241,0-0.437,0.242-0.437,0.538C7.657,10.322,7.853,10.563,8.093,10.563z"/>
<path fill="#FFFFFF" d="M12.754,10.563h1.516c0.241,0,0.437-0.241,0.437-0.538c0-0.296-0.195-0.538-0.437-0.538h-1.516
	c-0.242,0-0.437,0.242-0.437,0.538C12.317,10.322,12.512,10.563,12.754,10.563z"/>
<path fill="#FFFFFF" d="M17.414,10.563h1.516c0.24,0,0.436-0.241,0.436-0.538c0-0.296-0.195-0.538-0.436-0.538h-1.516
	c-0.242,0-0.436,0.242-0.436,0.538C16.979,10.322,17.172,10.563,17.414,10.563z"/>
<path fill="#FFFFFF" d="M23.59,9.486h-1.516c-0.24,0-0.436,0.242-0.436,0.538c0,0.297,0.195,0.538,0.436,0.538h1.516
	c0.242,0,0.438-0.241,0.438-0.538C24.027,9.729,23.832,9.486,23.59,9.486z"/>
<path fill="#FFFFFF" d="M4.949,11.268H3.433c-0.241,0-0.437,0.242-0.437,0.538c0,0.297,0.196,0.538,0.437,0.538h1.517
	c0.241,0,0.436-0.241,0.436-0.538C5.385,11.51,5.19,11.268,4.949,11.268z"/>
<path fill="#FFFFFF" d="M8.093,12.344h1.516c0.241,0,0.437-0.241,0.437-0.538c0-0.296-0.195-0.538-0.437-0.538H8.093
	c-0.241,0-0.437,0.242-0.437,0.538C7.657,12.103,7.853,12.344,8.093,12.344z"/>
<path fill="#FFFFFF" d="M12.754,12.344h1.516c0.241,0,0.437-0.241,0.437-0.538c0-0.296-0.195-0.538-0.437-0.538h-1.516
	c-0.242,0-0.437,0.242-0.437,0.538C12.317,12.103,12.512,12.344,12.754,12.344z"/>
<path fill="#FFFFFF" d="M17.414,12.344h1.516c0.24,0,0.436-0.241,0.436-0.538c0-0.296-0.195-0.538-0.436-0.538h-1.516
	c-0.242,0-0.436,0.242-0.436,0.538C16.979,12.103,17.172,12.344,17.414,12.344z"/>
<path fill="#FFFFFF" d="M23.59,11.268h-1.516c-0.24,0-0.436,0.242-0.436,0.538c0,0.297,0.195,0.538,0.436,0.538h1.516
	c0.242,0,0.438-0.241,0.438-0.538C24.027,11.51,23.832,11.268,23.59,11.268z"/>
<path fill="#FFFFFF" d="M8.104,21.119l2.244,2.242c0.324,0.325,0.755,0.504,1.214,0.504s0.891-0.179,1.215-0.504l6.144-6.143
	c0.668-0.67,0.668-1.76,0-2.431c-0.67-0.669-1.76-0.669-2.43,0l-4.929,4.929l-1.028-1.028c-0.669-0.671-1.759-0.671-2.43,0
	C7.434,19.359,7.434,20.448,8.104,21.119z M8.849,19.468c0.156-0.156,0.361-0.235,0.566-0.235c0.205,0,0.41,0.079,0.566,0.235
	l1.266,1.267c0.162,0.16,0.423,0.16,0.584,0l4.962-4.961c0.313-0.313,0.819-0.313,1.132,0c0.313,0.312,0.313,0.819,0,1.133
	l-5.819,5.818c-0.151,0.151-0.352,0.235-0.566,0.235s-0.415-0.084-0.566-0.235l-2.125-2.124C8.537,20.288,8.537,19.78,8.849,19.468z
	"/>
<path fill="#FFFFFF" d="M27.545,18.479v-3.481c0-0.242-0.334-0.609-0.576-0.609c-0.238,0-0.594,0.195-0.594,0.437v2.924
	c-0.795-0.412-1.398-0.473-2.355-0.473c-3.191,0-5.789,2.598-5.789,5.789c0,0.836,0.104,1.479,0.424,2.199H6.875
	c-0.241,0-0.36,0.345-0.36,0.586c0,0.239,0.196,0.437,0.437,0.437h12.261c1.039,1.546,2.807,2.565,4.807,2.565
	c3.191,0,5.787-2.596,5.787-5.787C29.807,21.2,28.92,19.538,27.545,18.479z M24.02,27.699c-2.556,0-4.635-2.079-4.635-4.633
	c0-2.556,2.079-4.635,4.635-4.635c2.554,0,4.635,2.079,4.635,4.635C28.654,25.62,26.573,27.699,24.02,27.699z"/>
<path fill="#FFFFFF" d="M24.02,19.513c-1.959,0-3.554,1.595-3.554,3.554s1.595,3.554,3.554,3.554s3.554-1.595,3.554-3.554
	S25.979,19.513,24.02,19.513z M24.344,25.877c0.023-0.048,0.039-0.103,0.039-0.16v-0.44c0-0.2-0.163-0.361-0.363-0.361
	c-0.199,0-0.361,0.161-0.361,0.361v0.44c0,0.058,0.014,0.112,0.039,0.16c-1.304-0.148-2.341-1.187-2.488-2.487
	c0.049,0.023,0.103,0.039,0.161,0.039h0.439c0.2,0,0.361-0.163,0.361-0.362s-0.161-0.362-0.361-0.362H21.37
	c-0.059,0-0.112,0.015-0.161,0.037c0.147-1.301,1.185-2.337,2.488-2.487c-0.025,0.05-0.039,0.104-0.039,0.162v0.44
	c0,0.201,0.162,0.361,0.361,0.361c0.2,0,0.363-0.16,0.363-0.361v-0.44c0-0.058-0.016-0.112-0.039-0.162
	c1.302,0.15,2.339,1.187,2.486,2.487c-0.047-0.022-0.103-0.037-0.159-0.037h-0.44c-0.201,0-0.362,0.163-0.362,0.362
	s0.161,0.362,0.362,0.362h0.44c0.057,0,0.112-0.016,0.159-0.039C26.683,24.69,25.646,25.729,24.344,25.877z"/>
<path fill="#FFFFFF" d="M24.98,22.63h-0.523v-0.448c0-0.241-0.195-0.436-0.438-0.436c-0.24,0-0.436,0.194-0.436,0.436v0.885
	c0,0.241,0.195,0.437,0.436,0.437h0.961c0.242,0,0.438-0.195,0.438-0.437S25.223,22.63,24.98,22.63z"/>
</svg>
