<svg xmlns="http://www.w3.org/2000/svg" width="496.61" height="72.523" viewBox="0 0 496.61 72.523">
  <g id="Group_3961" data-name="Group 3961" transform="translate(-130.39 -399)">
    <g id="Group_3960" data-name="Group 3960">
      <g id="Group_3956" data-name="Group 3956" transform="translate(130.39 399)">
        <path id="Path_5122" data-name="Path 5122" d="M.012,32.794A30.638,30.638,0,0,0,28.027,61.427,29.035,29.035,0,0,0,49.659,55a31.476,31.476,0,0,0,6.615-7.515c1.327-1.965,4.238-6.882,4.143-10.029l-16.983-.008c-1.732,2.72-3.22,4.719-6,6.3a14.515,14.515,0,0,1-17.887-3.464c-7.015-8.964-1.785-21.331,6.973-23.395A16.369,16.369,0,0,1,37,17.8c4.356,2.06,5.916,5.84,6.26,5.977l17.173.015c.156-1.945-2.8-7.793-3.7-9.22a29.111,29.111,0,0,0-14-12.02C39.07,1.03,36.476.675,32.352.046A32.256,32.256,0,0,0,11.029,7.274c-.393.34-.767.6-1.137.969A31.805,31.805,0,0,0,.012,32.794Z" transform="translate(0 0)" fill="#fff" fill-rule="evenodd"/>
        <path id="Path_5123" data-name="Path 5123" d="M47.574,18.222a9.157,9.157,0,0,1,9.83,7.786c.721,7.725-8.068,13.21-14.6,7.759a8.849,8.849,0,0,1,4.772-15.545ZM23.695,4.436l.015,57.238,15.93-.069,0-16.38c2.514,2.51,6.7,4.97,10.5,4.887a22.594,22.594,0,0,0,12.138-3.3,22.994,22.994,0,0,0,7.889-31.738C66.537,8.815,58.389,3.6,50.428,3.864a13.313,13.313,0,0,0-8.594,3.052c-.729.557-1.5,1.343-2.186,1.766L39.64,4.463,23.695,4.436Z" transform="translate(66.693 10.849)" fill="#fff" fill-rule="evenodd"/>
        <path id="Path_5124" data-name="Path 5124" d="M67.9,18.189a9.122,9.122,0,0,1,6.737,2.022,8.881,8.881,0,0,1-4.772,15.64,9.154,9.154,0,0,1-9.983-7.866,8.972,8.972,0,0,1,8.018-9.8Zm9.945,31.245,16.384,0L94.216,4.3,77.855,4.292l-.034,4.249a15.9,15.9,0,0,0-4.33-3.132c-6.115-2.9-13.157-1.179-18.318,1.915a20.6,20.6,0,0,0-7.629,7.622,23.247,23.247,0,0,0-3.456,11.978c-.225,4.322,1.595,9.01,3.349,11.951C51.622,45.9,58.549,49.8,67.079,49.976a13.557,13.557,0,0,0,8.583-2.853l2.163-1.728.019,4.04Z" transform="translate(124.038 11.043)" fill="#fff" fill-rule="evenodd"/>
        <path id="Path_5125" data-name="Path 5125" d="M38.353,60.109l15.91.048L54.241.086,38.338.1l.015,60.011Z" transform="translate(107.908 0.243)" fill="#fff" fill-rule="evenodd"/>
        <path id="Path_5126" data-name="Path 5126" d="M17.579,48.8c1.85.191,12.42.107,15.323,0l.05-44.2c0-.694-.877-.515-1.522-.5-2.228.053-13.248-.217-13.633.16-.481.481-.175,6.206-.175,7.332l-.046,36.227,0,.98Z" transform="translate(49.327 11.411)" fill="#fff" fill-rule="evenodd"/>
        <path id="Path_5127" data-name="Path 5127" d="M17.719,9.772c.629.16,11.8.149,14.236.069l.809-.153a.373.373,0,0,0,.122-.053A67.972,67.972,0,0,0,32.851.178L18.108.193c-.851,0-.5,1.144-.5,1.884.011,1.457-.168,7.107.111,7.694Z" transform="translate(49.354 0.501)" fill="#fff" fill-rule="evenodd"/>
      </g>
      <line id="Line_1" data-name="Line 1" y2="48.373" transform="translate(369.161 411.5)" fill="none" stroke="#acacac" stroke-width="1"/>
      <text id="Lenalidomide" transform="translate(387 448)" fill="#fff" font-size="35" font-family="Poppins-Medium, Poppins" font-weight="500"><tspan x="0" y="0">Lenalidomide</tspan></text>
    </g>
  </g>
</svg>
