<svg xmlns="http://www.w3.org/2000/svg" width="192.21" height="29.169" viewBox="0 0 192.21 29.169">
  <g id="Group_3961" data-name="Group 3961" transform="translate(-130.39 -399)">
    <g id="Group_3960" data-name="Group 3960" transform="translate(130.39 399)">
      <g id="Group_3956" data-name="Group 3956" transform="translate(0 0)">
        <path id="Path_5122" data-name="Path 5122" d="M0,13.19A12.323,12.323,0,0,0,11.272,24.706a11.678,11.678,0,0,0,8.7-2.587,12.66,12.66,0,0,0,2.66-3.022c.534-.79,1.7-2.768,1.666-4.034l-6.831,0a6.692,6.692,0,0,1-2.413,2.535A5.838,5.838,0,0,1,7.862,16.2c-2.822-3.606-.718-8.58,2.8-9.41a6.584,6.584,0,0,1,4.216.365,6.432,6.432,0,0,1,2.518,2.4l6.907.006c.063-.782-1.128-3.134-1.488-3.708a11.709,11.709,0,0,0-5.631-4.834A15.815,15.815,0,0,0,13.012.018,12.974,12.974,0,0,0,4.436,2.926c-.158.137-.308.242-.457.39A12.792,12.792,0,0,0,0,13.19Z" transform="translate(0 0)" fill="#fff" fill-rule="evenodd"/>
        <path id="Path_5123" data-name="Path 5123" d="M33.3,9.633a3.683,3.683,0,0,1,3.954,3.131A3.57,3.57,0,1,1,33.3,9.633Zm-9.6-5.545L23.7,27.11l6.407-.028,0-6.588a6.433,6.433,0,0,0,4.224,1.965,9.087,9.087,0,0,0,4.882-1.329A9.248,9.248,0,0,0,42.388,8.366a9.44,9.44,0,0,0-7.941-4.508A5.355,5.355,0,0,0,30.99,5.086c-.293.224-.6.54-.879.71l0-1.7-6.413-.011Z" transform="translate(12.66 2.059)" fill="#fff" fill-rule="evenodd"/>
        <path id="Path_5124" data-name="Path 5124" d="M53.653,9.661a3.669,3.669,0,0,1,2.709.813,3.572,3.572,0,0,1-1.919,6.29A3.682,3.682,0,0,1,50.428,13.6a3.609,3.609,0,0,1,3.225-3.94Zm4,12.567,6.59,0,0-18.152-6.58,0-.014,1.709A6.393,6.393,0,0,0,55.9,4.521c-2.459-1.166-5.292-.474-7.368.77a8.286,8.286,0,0,0-3.069,3.065,9.35,9.35,0,0,0-1.39,4.818,9.214,9.214,0,0,0,1.347,4.807,9.036,9.036,0,0,0,7.9,4.465A5.453,5.453,0,0,0,56.776,21.3l.87-.7.008,1.625Z" transform="translate(23.545 2.096)" fill="#fff" fill-rule="evenodd"/>
        <path id="Path_5125" data-name="Path 5125" d="M38.344,24.228l6.4.019L44.735.086l-6.4,0,.006,24.137Z" transform="translate(20.483 0.046)" fill="#fff" fill-rule="evenodd"/>
        <path id="Path_5126" data-name="Path 5126" d="M17.546,22.051c.744.077,5,.043,6.163,0l.02-17.779c0-.279-.353-.207-.612-.2-.9.021-5.328-.087-5.483.064a14.517,14.517,0,0,0-.071,2.949l-.018,14.571,0,.394Z" transform="translate(9.363 2.166)" fill="#fff" fill-rule="evenodd"/>
        <path id="Path_5127" data-name="Path 5127" d="M17.609,4.037c.253.064,4.745.06,5.726.028L23.66,4a.15.15,0,0,0,.049-.021A27.338,27.338,0,0,0,23.7.178l-5.93.006c-.342,0-.2.46-.2.758a28.221,28.221,0,0,0,.044,3.095Z" transform="translate(9.369 0.095)" fill="#fff" fill-rule="evenodd"/>
      </g>
      <line id="Line_1" data-name="Line 1" y2="19.456" transform="translate(96.036 5.028)" fill="none" stroke="#acacac" stroke-width="1"/>
      <text id="Lenalidomide" transform="translate(103.21 18.826)" fill="#fff" font-size="13" font-family="Poppins-Medium, Poppins" font-weight="500"><tspan x="0" y="0">Lenalidomide</tspan></text>
    </g>
  </g>
</svg>
