<?xml version="1.0" encoding="utf-8"?>
<!-- Generator: Adobe Illustrator 14.0.0, SVG Export Plug-In . SVG Version: 6.00 Build 43363)  -->
<!DOCTYPE svg PUBLIC "-//W3C//DTD SVG 1.1//EN" "http://www.w3.org/Graphics/SVG/1.1/DTD/svg11.dtd">
<svg version="1.1" id="Layer_1" xmlns="http://www.w3.org/2000/svg" xmlns:xlink="http://www.w3.org/1999/xlink" x="0px" y="0px"
	 width="29px" height="38.057px" viewBox="0 0 29 38.057" enable-background="new 0 0 29 38.057" xml:space="preserve">
<path fill="#76D5E0" d="M24.072,17.402c1.344-0.715,2.271-2.114,2.271-3.738c0-2.345-1.907-4.252-4.252-4.252
	c-0.727,0-1.401,0.201-2.001,0.523c-0.3-2.859-2.726-5.095-5.661-5.095c-2.971,0-5.416,2.289-5.668,5.198
	C8.119,9.65,7.375,9.412,6.571,9.412c-2.344,0-4.252,1.907-4.252,4.252c0,1.703,1.015,3.167,2.466,3.844
	C2.021,18.352,0.02,20.741,0,23.573v6.291c0.017,0.346,0.324,0.617,0.699,0.62l4.931-0.006v1.747
	c0.023,0.462,0.436,0.827,0.937,0.83l16.437-0.02c0.502-0.003,0.913-0.368,0.938-0.83v-1.731l4.552-0.006
	c0.375-0.004,0.682-0.275,0.698-0.62v-6.291C29.175,20.614,27.009,18.148,24.072,17.402z M20.096,11.059
	c0.556-0.427,1.242-0.691,1.995-0.691c1.818,0,3.298,1.479,3.298,3.296c0,1.815-1.479,3.295-3.298,3.295
	c-1.66,0-3.023-1.237-3.249-2.835C19.537,13.271,19.989,12.214,20.096,11.059z M14.429,6.12c2.432,0,4.413,1.979,4.413,4.413
	c0,0.165-0.031,0.32-0.049,0.48c-0.504,0.626-0.829,1.392-0.912,2.236c-0.809,1.025-2.047,1.696-3.452,1.696
	c-1.534,0-2.885-0.788-3.676-1.979c-0.103-0.614-0.325-1.188-0.662-1.685c-0.042-0.245-0.076-0.493-0.076-0.749
	C10.015,8.099,11.995,6.12,14.429,6.12z M18.576,16.052c-0.467-0.204-0.952-0.373-1.458-0.503c0.332-0.179,0.645-0.389,0.933-0.627
	C18.177,15.324,18.344,15.709,18.576,16.052z M12.023,15.685c-1.234,0.378-2.35,0.992-3.296,1.776
	c-0.06-0.017-0.114-0.044-0.175-0.059c1.02-0.543,1.797-1.481,2.114-2.61C11.072,15.15,11.527,15.452,12.023,15.685z M3.275,13.663
	c0-1.817,1.479-3.296,3.296-3.296c0.856,0,1.63,0.336,2.217,0.873c0.123,0.98,0.499,1.878,1.058,2.638
	c-0.113,1.714-1.531,3.08-3.275,3.08C4.754,16.958,3.275,15.48,3.275,13.663z M5.63,23.802v5.459l-4.309,0.007v-5.692
	c0.023-2.866,2.55-5.18,5.659-5.178c0-0.003,0-0.006,0-0.008c0.24,0.011,0.468,0.057,0.7,0.095
	C6.412,19.944,5.644,21.787,5.63,23.802z M22.172,31.407l-14.774,0.02v-7.623c0.015-1.834,0.801-3.493,2.065-4.73
	c0.443-0.482,0.318-0.357,1.044-0.851c1.254-0.847,2.796-1.352,4.468-1.352c0-0.003,0-0.007,0-0.012
	c1.458,0.066,2.807,0.517,3.936,1.239c0.604,0.398,0.619,0.32,1.083,0.842c1.332,1.248,2.162,2.955,2.177,4.845V31.407z
	 M27.874,29.251l-3.933,0.006v-5.475c-0.015-2.028-0.793-3.886-2.075-5.351c0.208-0.021,0.419-0.034,0.633-0.034
	c0-0.003,0-0.006,0-0.008c2.978,0.134,5.353,2.393,5.375,5.171V29.251z"/>
</svg>
