<?xml version="1.0" encoding="utf-8"?>
<!-- Generator: Adobe Illustrator 14.0.0, SVG Export Plug-In . SVG Version: 6.00 Build 43363)  -->
<!DOCTYPE svg PUBLIC "-//W3C//DTD SVG 1.1//EN" "http://www.w3.org/Graphics/SVG/1.1/DTD/svg11.dtd">
<svg version="1.1" id="Layer_1" xmlns="http://www.w3.org/2000/svg" xmlns:xlink="http://www.w3.org/1999/xlink" x="0px" y="0px"
	 width="29px" height="38.057px" viewBox="0 0 29 38.057" enable-background="new 0 0 29 38.057" xml:space="preserve">
<g>
	<path fill="#FF8566" d="M27.831,10.267L22.42,6c-0.076-0.061-0.18-0.093-0.285-0.093H1.539c-0.223,0-0.403,0.143-0.403,0.316V33.74
		c0,0.176,0.181,0.315,0.403,0.315h26.006c0.225,0,0.403-0.144,0.403-0.315V10.492C27.948,10.408,27.904,10.327,27.831,10.267z
		 M22.538,6.995l4.03,3.179h-4.03V6.995z M26.821,33.099H2.424V6.785h19.158v3.865c0,0.172,0.176,0.311,0.389,0.311h4.849v22.137
		L26.821,33.099L26.821,33.099z"/>
	<path fill="#FF8566" d="M9.253,10.512H5.537c-0.223,0-0.403,0.143-0.403,0.318v2.929c0,0.176,0.181,0.318,0.403,0.318h3.716
		c0.223,0,0.403-0.144,0.403-0.318V10.83C9.656,10.655,9.476,10.512,9.253,10.512z M8.848,13.441H5.94v-2.293h2.907L8.848,13.441
		L8.848,13.441z"/>
	<path fill="#FF8566" d="M9.253,15.82H5.537c-0.223,0-0.403,0.145-0.403,0.317v2.931c0,0.178,0.181,0.317,0.403,0.317h3.716
		c0.223,0,0.403-0.144,0.403-0.317v-2.931C9.656,15.962,9.476,15.82,9.253,15.82z M8.848,18.749H5.94v-2.293h2.907L8.848,18.749
		L8.848,18.749z"/>
	<path fill="#FF8566" d="M9.253,22.127H5.537c-0.223,0-0.403,0.143-0.403,0.315v2.932c0,0.177,0.181,0.316,0.403,0.316h3.716
		c0.223,0,0.403-0.143,0.403-0.316v-2.932C9.656,22.269,9.476,22.127,9.253,22.127z M8.848,25.056H5.94v-2.292h2.907L8.848,25.056
		L8.848,25.056z"/>
	<path fill="#FF8566" d="M9.253,27.491H5.537c-0.223,0-0.403,0.146-0.403,0.318v2.93c0,0.177,0.181,0.317,0.403,0.317h3.716
		c0.223,0,0.403-0.145,0.403-0.317v-2.93C9.656,27.633,9.476,27.491,9.253,27.491z M8.848,30.423H5.94v-2.295h2.907L8.848,30.423
		L8.848,30.423z"/>
	<path fill="#FF8566" d="M11.594,12.76c0,0.176,0.181,0.318,0.403,0.318h11.551c0.224,0,0.401-0.144,0.401-0.318
		s-0.18-0.318-0.401-0.318H11.997C11.774,12.441,11.594,12.584,11.594,12.76z"/>
	<path fill="#FF8566" d="M23.549,16.749H11.998c-0.224,0-0.403,0.143-0.403,0.316c0,0.175,0.181,0.317,0.403,0.317h11.551
		c0.223,0,0.401-0.144,0.401-0.317S23.771,16.749,23.549,16.749z"/>
	<path fill="#FF8566" d="M23.549,24.056H11.998c-0.224,0-0.403,0.146-0.403,0.318c0,0.176,0.181,0.316,0.403,0.316h11.551
		c0.223,0,0.401-0.143,0.401-0.316S23.771,24.056,23.549,24.056z"/>
	<path fill="#FF8566" d="M23.549,29.423H11.998c-0.224,0-0.403,0.143-0.403,0.315s0.181,0.317,0.403,0.317h11.551
		c0.223,0,0.401-0.145,0.401-0.317S23.771,29.423,23.549,29.423z"/>
	<path fill="#FF8566" d="M6.912,18.342c0.065,0.103,0.195,0.169,0.342,0.176c0.007,0,0.014,0,0.02,0
		c0.138,0,0.267-0.056,0.342-0.147l0.97-1.209c0.118-0.148,0.063-0.348-0.125-0.439c-0.189-0.094-0.438-0.049-0.558,0.1
		l-0.587,0.732l-0.1-0.157c-0.102-0.155-0.343-0.222-0.542-0.143c-0.2,0.079-0.28,0.271-0.181,0.427L6.912,18.342z"/>
</g>
</svg>
