<svg id="profile" xmlns="http://www.w3.org/2000/svg" width="23.161" height="24" viewBox="0 0 23.161 24">
  <g id="Group_4100" data-name="Group 4100">
    <path id="Path_9583" data-name="Path 9583" d="M9,10a5,5,0,1,1,5-5A5.006,5.006,0,0,1,9,10ZM9,1a4,4,0,1,0,4,4A4,4,0,0,0,9,1Z" fill="#b5ceef"/>
  </g>
  <g id="Group_4101" data-name="Group 4101">
    <path id="Path_9584" data-name="Path 9584" d="M8.5,21H.5a.5.5,0,0,1-.5-.5v-4A4.505,4.505,0,0,1,4.5,12h6a.5.5,0,0,1,0,1h-6A3.5,3.5,0,0,0,1,16.5V20H8.5a.5.5,0,0,1,0,1Z" fill="#b5ceef"/>
  </g>
  <g id="Group_4104" data-name="Group 4104">
    <g id="Group_4102" data-name="Group 4102">
      <path id="Path_9585" data-name="Path 9585" d="M17,20a2.5,2.5,0,1,1,2.5-2.5A2.5,2.5,0,0,1,17,20Zm0-4a1.5,1.5,0,1,0,1.5,1.5A1.5,1.5,0,0,0,17,16Z" fill="#b5ceef"/>
    </g>
    <g id="Group_4103" data-name="Group 4103">
      <path id="Path_9586" data-name="Path 9586" d="M17.8,24H16.2a1,1,0,0,1-.995-.9l-.127-1.271a4.7,4.7,0,0,1-.865-.5l-1.168.527a1,1,0,0,1-1.277-.412l-.8-1.381a1,1,0,0,1,.282-1.312l1.029-.74a3.8,3.8,0,0,1,0-1.014l-1.029-.74a1,1,0,0,1-.282-1.312l.8-1.381a1,1,0,0,1,1.277-.412l1.168.527a4.7,4.7,0,0,1,.865-.5l.127-1.271a1,1,0,0,1,1-.9H17.8a1,1,0,0,1,1,.9l.127,1.271a4.687,4.687,0,0,1,.865.5l1.168-.527a1,1,0,0,1,1.277.412l.8,1.381a1,1,0,0,1-.282,1.312l-1.029.74a3.8,3.8,0,0,1,0,1.014l1.029.74a1,1,0,0,1,.282,1.312l-.8,1.38a1,1,0,0,1-1.277.412l-1.168-.527a4.7,4.7,0,0,1-.865.5L18.792,23.1a1,1,0,0,1-1,.9Zm-3.512-3.755a.5.5,0,0,1,.321.117,3.724,3.724,0,0,0,1.113.647.5.5,0,0,1,.326.42L16.2,23H17.8l.157-1.571a.5.5,0,0,1,.326-.42,3.745,3.745,0,0,0,1.113-.647.5.5,0,0,1,.526-.072l1.444.652.8-1.381-1.278-.918a.5.5,0,0,1-.2-.493,3.167,3.167,0,0,0,0-1.3.5.5,0,0,1,.2-.493l1.278-.918-.8-1.381-1.444.651a.5.5,0,0,1-.527-.072,3.687,3.687,0,0,0-1.113-.647.5.5,0,0,1-.326-.42L17.8,12H16.2l-.157,1.571a.5.5,0,0,1-.326.42,3.745,3.745,0,0,0-1.113.647.5.5,0,0,1-.526.072l-1.444-.652-.8,1.381,1.278.918a.5.5,0,0,1,.2.493,3.167,3.167,0,0,0,0,1.3.5.5,0,0,1-.2.493l-1.278.918.8,1.381,1.444-.651a.522.522,0,0,1,.2-.042Z" fill="#b5ceef"/>
    </g>
  </g>
</svg>
