<svg xmlns="http://www.w3.org/2000/svg" width="19.805" height="26" viewBox="0 0 19.805 26">
  <g id="notification-bell" transform="translate(-41.245 0)">
    <path id="Path_9576" data-name="Path 9576" d="M62.523,9.9v8.165a1.827,1.827,0,0,1-.539,1.3A3.34,3.34,0,0,0,61,21.745v1.208h6.17a3.809,3.809,0,0,0,7.464,0H80.8V21.745a3.34,3.34,0,0,0-.985-2.378,1.827,1.827,0,0,1-.539-1.3V9.9a8.39,8.39,0,0,0-7.617-8.344V0H70.141V1.558A8.39,8.39,0,0,0,62.523,9.9ZM70.9,24.477a2.288,2.288,0,0,1-2.154-1.524h4.308A2.288,2.288,0,0,1,70.9,24.477ZM77.758,9.9v8.165a3.34,3.34,0,0,0,.985,2.378,1.826,1.826,0,0,1,.512.985H62.55a1.825,1.825,0,0,1,.512-.985,3.341,3.341,0,0,0,.985-2.378V9.9a6.855,6.855,0,0,1,13.711,0Z" transform="translate(-19.755)" fill="#747474"/>
  </g>
</svg>
