<svg xmlns="http://www.w3.org/2000/svg" xmlns:xlink="http://www.w3.org/1999/xlink" width="104" height="129" viewBox="0 0 104 129">
  <defs>
    <clipPath id="clip-path">
      <rect width="104" height="129" fill="none"/>
    </clipPath>
  </defs>
  <g id="Repeat_Grid_1" data-name="Repeat Grid 1" clip-path="url(#clip-path)">
    <g transform="translate(-102 -739)">
      <circle id="Ellipse_19" data-name="Ellipse 19" cx="2" cy="2" r="2" transform="translate(102 739)" fill="#255ca3" opacity="0.33"/>
    </g>
    <g transform="translate(-83 -739)">
      <circle id="Ellipse_19-2" data-name="Ellipse 19" cx="2" cy="2" r="2" transform="translate(102 739)" fill="#255ca3" opacity="0.33"/>
    </g>
    <g transform="translate(-64 -739)">
      <circle id="Ellipse_19-3" data-name="Ellipse 19" cx="2" cy="2" r="2" transform="translate(102 739)" fill="#255ca3" opacity="0.33"/>
    </g>
    <g transform="translate(-45 -739)">
      <circle id="Ellipse_19-4" data-name="Ellipse 19" cx="2" cy="2" r="2" transform="translate(102 739)" fill="#255ca3" opacity="0.33"/>
    </g>
    <g transform="translate(-26 -739)">
      <circle id="Ellipse_19-5" data-name="Ellipse 19" cx="2" cy="2" r="2" transform="translate(102 739)" fill="#255ca3" opacity="0.33"/>
    </g>
    <g transform="translate(-7 -739)">
      <circle id="Ellipse_19-6" data-name="Ellipse 19" cx="2" cy="2" r="2" transform="translate(102 739)" fill="#255ca3" opacity="0.33"/>
    </g>
    <g transform="translate(-102 -719)">
      <circle id="Ellipse_19-7" data-name="Ellipse 19" cx="2" cy="2" r="2" transform="translate(102 739)" fill="#255ca3" opacity="0.33"/>
    </g>
    <g transform="translate(-83 -719)">
      <circle id="Ellipse_19-8" data-name="Ellipse 19" cx="2" cy="2" r="2" transform="translate(102 739)" fill="#255ca3" opacity="0.33"/>
    </g>
    <g transform="translate(-64 -719)">
      <circle id="Ellipse_19-9" data-name="Ellipse 19" cx="2" cy="2" r="2" transform="translate(102 739)" fill="#255ca3" opacity="0.33"/>
    </g>
    <g transform="translate(-45 -719)">
      <circle id="Ellipse_19-10" data-name="Ellipse 19" cx="2" cy="2" r="2" transform="translate(102 739)" fill="#255ca3" opacity="0.33"/>
    </g>
    <g transform="translate(-26 -719)">
      <circle id="Ellipse_19-11" data-name="Ellipse 19" cx="2" cy="2" r="2" transform="translate(102 739)" fill="#255ca3" opacity="0.33"/>
    </g>
    <g transform="translate(-7 -719)">
      <circle id="Ellipse_19-12" data-name="Ellipse 19" cx="2" cy="2" r="2" transform="translate(102 739)" fill="#255ca3" opacity="0.33"/>
    </g>
    <g transform="translate(-102 -699)">
      <circle id="Ellipse_19-13" data-name="Ellipse 19" cx="2" cy="2" r="2" transform="translate(102 739)" fill="#255ca3" opacity="0.33"/>
    </g>
    <g transform="translate(-83 -699)">
      <circle id="Ellipse_19-14" data-name="Ellipse 19" cx="2" cy="2" r="2" transform="translate(102 739)" fill="#255ca3" opacity="0.33"/>
    </g>
    <g transform="translate(-64 -699)">
      <circle id="Ellipse_19-15" data-name="Ellipse 19" cx="2" cy="2" r="2" transform="translate(102 739)" fill="#255ca3" opacity="0.33"/>
    </g>
    <g transform="translate(-45 -699)">
      <circle id="Ellipse_19-16" data-name="Ellipse 19" cx="2" cy="2" r="2" transform="translate(102 739)" fill="#255ca3" opacity="0.33"/>
    </g>
    <g transform="translate(-26 -699)">
      <circle id="Ellipse_19-17" data-name="Ellipse 19" cx="2" cy="2" r="2" transform="translate(102 739)" fill="#255ca3" opacity="0.33"/>
    </g>
    <g transform="translate(-7 -699)">
      <circle id="Ellipse_19-18" data-name="Ellipse 19" cx="2" cy="2" r="2" transform="translate(102 739)" fill="#255ca3" opacity="0.33"/>
    </g>
    <g transform="translate(-102 -679)">
      <circle id="Ellipse_19-19" data-name="Ellipse 19" cx="2" cy="2" r="2" transform="translate(102 739)" fill="#255ca3" opacity="0.33"/>
    </g>
    <g transform="translate(-83 -679)">
      <circle id="Ellipse_19-20" data-name="Ellipse 19" cx="2" cy="2" r="2" transform="translate(102 739)" fill="#255ca3" opacity="0.33"/>
    </g>
    <g transform="translate(-64 -679)">
      <circle id="Ellipse_19-21" data-name="Ellipse 19" cx="2" cy="2" r="2" transform="translate(102 739)" fill="#255ca3" opacity="0.33"/>
    </g>
    <g transform="translate(-45 -679)">
      <circle id="Ellipse_19-22" data-name="Ellipse 19" cx="2" cy="2" r="2" transform="translate(102 739)" fill="#255ca3" opacity="0.33"/>
    </g>
    <g transform="translate(-26 -679)">
      <circle id="Ellipse_19-23" data-name="Ellipse 19" cx="2" cy="2" r="2" transform="translate(102 739)" fill="#255ca3" opacity="0.33"/>
    </g>
    <g transform="translate(-7 -679)">
      <circle id="Ellipse_19-24" data-name="Ellipse 19" cx="2" cy="2" r="2" transform="translate(102 739)" fill="#255ca3" opacity="0.33"/>
    </g>
    <g transform="translate(-102 -659)">
      <circle id="Ellipse_19-25" data-name="Ellipse 19" cx="2" cy="2" r="2" transform="translate(102 739)" fill="#255ca3" opacity="0.33"/>
    </g>
    <g transform="translate(-83 -659)">
      <circle id="Ellipse_19-26" data-name="Ellipse 19" cx="2" cy="2" r="2" transform="translate(102 739)" fill="#255ca3" opacity="0.33"/>
    </g>
    <g transform="translate(-64 -659)">
      <circle id="Ellipse_19-27" data-name="Ellipse 19" cx="2" cy="2" r="2" transform="translate(102 739)" fill="#255ca3" opacity="0.33"/>
    </g>
    <g transform="translate(-45 -659)">
      <circle id="Ellipse_19-28" data-name="Ellipse 19" cx="2" cy="2" r="2" transform="translate(102 739)" fill="#255ca3" opacity="0.33"/>
    </g>
    <g transform="translate(-26 -659)">
      <circle id="Ellipse_19-29" data-name="Ellipse 19" cx="2" cy="2" r="2" transform="translate(102 739)" fill="#255ca3" opacity="0.33"/>
    </g>
    <g transform="translate(-7 -659)">
      <circle id="Ellipse_19-30" data-name="Ellipse 19" cx="2" cy="2" r="2" transform="translate(102 739)" fill="#255ca3" opacity="0.33"/>
    </g>
    <g transform="translate(-102 -639)">
      <circle id="Ellipse_19-31" data-name="Ellipse 19" cx="2" cy="2" r="2" transform="translate(102 739)" fill="#255ca3" opacity="0.33"/>
    </g>
    <g transform="translate(-83 -639)">
      <circle id="Ellipse_19-32" data-name="Ellipse 19" cx="2" cy="2" r="2" transform="translate(102 739)" fill="#255ca3" opacity="0.33"/>
    </g>
    <g transform="translate(-64 -639)">
      <circle id="Ellipse_19-33" data-name="Ellipse 19" cx="2" cy="2" r="2" transform="translate(102 739)" fill="#255ca3" opacity="0.33"/>
    </g>
    <g transform="translate(-45 -639)">
      <circle id="Ellipse_19-34" data-name="Ellipse 19" cx="2" cy="2" r="2" transform="translate(102 739)" fill="#255ca3" opacity="0.33"/>
    </g>
    <g transform="translate(-26 -639)">
      <circle id="Ellipse_19-35" data-name="Ellipse 19" cx="2" cy="2" r="2" transform="translate(102 739)" fill="#255ca3" opacity="0.33"/>
    </g>
    <g transform="translate(-7 -639)">
      <circle id="Ellipse_19-36" data-name="Ellipse 19" cx="2" cy="2" r="2" transform="translate(102 739)" fill="#255ca3" opacity="0.33"/>
    </g>
    <g transform="translate(-102 -619)">
      <circle id="Ellipse_19-37" data-name="Ellipse 19" cx="2" cy="2" r="2" transform="translate(102 739)" fill="#255ca3" opacity="0.33"/>
    </g>
    <g transform="translate(-83 -619)">
      <circle id="Ellipse_19-38" data-name="Ellipse 19" cx="2" cy="2" r="2" transform="translate(102 739)" fill="#255ca3" opacity="0.33"/>
    </g>
    <g transform="translate(-64 -619)">
      <circle id="Ellipse_19-39" data-name="Ellipse 19" cx="2" cy="2" r="2" transform="translate(102 739)" fill="#255ca3" opacity="0.33"/>
    </g>
    <g transform="translate(-45 -619)">
      <circle id="Ellipse_19-40" data-name="Ellipse 19" cx="2" cy="2" r="2" transform="translate(102 739)" fill="#255ca3" opacity="0.33"/>
    </g>
    <g transform="translate(-26 -619)">
      <circle id="Ellipse_19-41" data-name="Ellipse 19" cx="2" cy="2" r="2" transform="translate(102 739)" fill="#255ca3" opacity="0.33"/>
    </g>
    <g transform="translate(-7 -619)">
      <circle id="Ellipse_19-42" data-name="Ellipse 19" cx="2" cy="2" r="2" transform="translate(102 739)" fill="#255ca3" opacity="0.33"/>
    </g>
  </g>
</svg>
