<svg id="patient_1_" data-name="patient (1)" xmlns="http://www.w3.org/2000/svg" width="21.333" height="21.333" viewBox="0 0 21.333 21.333">
  <g id="Group_4063" data-name="Group 4063">
    <g id="Group_4061" data-name="Group 4061" transform="translate(3.556)">
      <path id="Path_9551" data-name="Path 9551" d="M8.444,8.889a4.444,4.444,0,1,1,4.444-4.444A4.449,4.449,0,0,1,8.444,8.889Zm0-8A3.556,3.556,0,1,0,12,4.444,3.559,3.559,0,0,0,8.444.889Z" transform="translate(-4)" fill="#b5ceef"/>
    </g>
    <g id="Group_4062" data-name="Group 4062" transform="translate(0 10.667)">
      <path id="Path_9552" data-name="Path 9552" d="M8.444,20h-8A.445.445,0,0,1,0,19.556V16a4,4,0,0,1,4-4h8a.444.444,0,1,1,0,.889H4A3.115,3.115,0,0,0,.889,16v3.111H8.444a.444.444,0,0,1,0,.889Z" transform="translate(0 -12)" fill="#b5ceef"/>
    </g>
  </g>
  <g id="Group_4064" data-name="Group 4064" transform="translate(10.667 10.667)">
    <path id="Path_9553" data-name="Path 9553" d="M17.778,22.667h-.889a1.335,1.335,0,0,1-1.333-1.333V19.111H13.333A1.335,1.335,0,0,1,12,17.778v-.889a1.335,1.335,0,0,1,1.333-1.333h2.222V13.333A1.335,1.335,0,0,1,16.889,12h.889a1.335,1.335,0,0,1,1.333,1.333v2.222h2.222a1.335,1.335,0,0,1,1.333,1.333v.889a1.335,1.335,0,0,1-1.333,1.333H19.111v2.222A1.335,1.335,0,0,1,17.778,22.667Zm-4.444-6.222a.445.445,0,0,0-.444.444v.889a.445.445,0,0,0,.444.444H16a.445.445,0,0,1,.444.444v2.667a.445.445,0,0,0,.444.444h.889a.445.445,0,0,0,.444-.444V18.667a.445.445,0,0,1,.444-.444h2.667a.445.445,0,0,0,.444-.444v-.889a.445.445,0,0,0-.444-.444H18.667A.445.445,0,0,1,18.222,16V13.333a.445.445,0,0,0-.444-.444h-.889a.445.445,0,0,0-.444.444V16a.445.445,0,0,1-.444.444Z" transform="translate(-12 -12)" fill="#b5ceef"/>
  </g>
</svg>
