<?xml version="1.0" encoding="utf-8"?>
<!-- Generator: Adobe Illustrator 16.0.0, SVG Export Plug-In . SVG Version: 6.00 Build 0)  -->
<!DOCTYPE svg PUBLIC "-//W3C//DTD SVG 1.1//EN" "http://www.w3.org/Graphics/SVG/1.1/DTD/svg11.dtd">
<svg version="1.1" id="patient_1_" xmlns="http://www.w3.org/2000/svg" xmlns:xlink="http://www.w3.org/1999/xlink" x="0px" y="0px"
	 width="21.333px" height="21.333px" viewBox="0 0 21.333 21.333" enable-background="new 0 0 21.333 21.333" xml:space="preserve">
<g id="Group_4063">
	<g id="Group_4061" transform="translate(3.556)">
		<path id="Path_9551" fill="#FFFFFF" d="M4.444,8.889C1.989,8.889,0,6.899,0,4.445c0-2.454,1.989-4.444,4.444-4.444
			s4.444,1.99,4.444,4.444C8.886,6.898,6.897,8.886,4.444,8.889z M4.444,0.889c-1.964,0-3.556,1.592-3.556,3.556
			c0,1.964,1.592,3.556,3.556,3.556S8,6.409,8,4.445c0,0,0,0,0-0.001C7.997,2.481,6.407,0.891,4.444,0.889z"/>
	</g>
	<g id="Group_4062" transform="translate(0 10.667)">
		<path id="Path_9552" fill="#FFFFFF" d="M8.444,8h-8C0.199,8,0,7.8,0,7.556V4c0-2.209,1.791-4,4-4h8
			c0.245,0,0.443,0.199,0.443,0.444c0,0.246-0.198,0.445-0.443,0.445H4C2.283,0.891,0.891,2.283,0.889,4v3.111h7.555
			c0.246,0,0.445,0.199,0.445,0.445C8.889,7.8,8.689,8,8.444,8z"/>
	</g>
</g>
<g id="Group_4064" transform="translate(10.667 10.667)">
	<path id="Path_9553" fill="#FFFFFF" d="M5.778,10.667H4.889c-0.735-0.002-1.332-0.598-1.333-1.334V7.111H1.333
		C0.597,7.11,0.001,6.513,0,5.778V4.889c0.001-0.735,0.597-1.332,1.333-1.333h2.222V1.333C3.556,0.597,4.153,0,4.889,0h0.889
		C6.513,0.001,7.11,0.597,7.111,1.333v2.222h2.223c0.735,0.001,1.332,0.597,1.332,1.333v0.889c0,0.736-0.597,1.332-1.332,1.333
		H7.111v2.222C7.111,10.068,6.515,10.666,5.778,10.667z M1.333,4.445c-0.244,0-0.443,0.199-0.443,0.444v0.889
		c0,0.245,0.199,0.444,0.443,0.444H4c0.246,0,0.443,0.199,0.444,0.443v2.668c0.001,0.244,0.199,0.443,0.444,0.443h0.889
		c0.245,0,0.443-0.199,0.444-0.443V6.667c0.001-0.246,0.198-0.443,0.444-0.444h2.666c0.246-0.001,0.443-0.199,0.444-0.444V4.89
		C9.775,4.645,9.578,4.447,9.332,4.446H6.667c-0.246,0-0.445-0.199-0.445-0.444c0-0.001,0-0.001,0-0.002V1.333
		c0-0.246-0.199-0.443-0.444-0.444H4.889C4.644,0.89,4.446,1.087,4.445,1.333V4c0,0.246-0.199,0.443-0.443,0.444L1.333,4.445z"/>
</g>
</svg>
