<?xml version="1.0" encoding="utf-8"?>
<!-- Generator: Adobe Illustrator 14.0.0, SVG Export Plug-In . SVG Version: 6.00 Build 43363)  -->
<!DOCTYPE svg PUBLIC "-//W3C//DTD SVG 1.1//EN" "http://www.w3.org/Graphics/SVG/1.1/DTD/svg11.dtd">
<svg version="1.1" id="Layer_1" xmlns="http://www.w3.org/2000/svg" xmlns:xlink="http://www.w3.org/1999/xlink" x="0px" y="0px"
	 width="16px" height="16px" viewBox="0 0 16 16" enable-background="new 0 0 16 16" xml:space="preserve">
<g>
	<g>
		<g>
			<path fill="#6A6A6A" d="M11.018,9.719c-0.014-0.002-1.155,0.036-1.482-1.134c0.212-0.16,0.411-0.356,0.588-0.59
				c0.378-0.502,0.627-1.126,0.721-1.801c0.028-0.031,0.053-0.068,0.068-0.106c0.162-0.378,0.245-0.781,0.245-1.199
				c0-1.607-1.248-2.915-2.78-2.915c-0.394,0-0.775,0.087-1.136,0.256C7.106,2.246,6.977,2.269,6.851,2.304
				c-1.283,0.362-2.01,1.872-1.621,3.367c0.039,0.151,0.135,0.438,0.211,0.543c0.148,1.016,0.635,1.867,1.304,2.367
				c-0.332,1.19-1.472,1.138-1.482,1.138c-1.107,0.033-1.995,0.923-1.995,2.012v1.314c0,0.495,0.411,0.899,0.918,0.899h7.908
				c0.506,0,0.92-0.404,0.92-0.899V11.73C13.014,10.642,12.121,9.755,11.018,9.719z M7.084,3.095
				c0.092-0.025,0.189-0.042,0.287-0.046c0.063-0.001,0.121-0.02,0.178-0.047c0.264-0.133,0.539-0.203,0.826-0.203
				c1.012,0,1.843,0.841,1.927,1.911c-0.211-0.131-0.456-0.205-0.724-0.205H7.672c-0.083,0-0.161-0.025-0.226-0.072
				C7.389,4.391,7.347,4.337,7.32,4.273c-0.08-0.19-0.272-0.307-0.481-0.295C6.628,3.99,6.452,4.134,6.398,4.332
				c-0.079,0.3-0.221,0.582-0.412,0.831C5.862,4.203,6.316,3.312,7.084,3.095z M6.274,6.078c0.297-0.273,0.542-0.593,0.717-0.95
				c0.203,0.132,0.436,0.201,0.68,0.201h1.908c0.201,0,0.374,0.113,0.462,0.277c-0.008,1.079-0.475,2.005-1.143,2.411
				C8.878,8.028,8.571,8.24,8.142,8.24C7.238,8.24,6.442,7.304,6.274,6.078z M9.384,9.915c-0.357,0.255-0.792,0.396-1.242,0.396
				c-0.451,0-0.888-0.143-1.248-0.396c0.279-0.257,0.493-0.582,0.614-0.946C7.711,9.03,7.921,9.063,8.142,9.063
				c0.214,0,0.425-0.033,0.626-0.092C8.893,9.333,9.105,9.66,9.384,9.915z M12.17,13.045L12.17,13.045
				c0,0.041-0.035,0.069-0.076,0.069H4.185c-0.042,0-0.074-0.028-0.074-0.069V11.73c0-0.656,0.546-1.191,1.218-1.191
				c0.013,0,0.409-0.006,0.82-0.158c0.542,0.482,1.252,0.754,1.994,0.754c0.738,0,1.447-0.271,1.991-0.754
				c0.418,0.167,0.804,0.158,0.814,0.158c0.674,0,1.222,0.533,1.222,1.191V13.045L12.17,13.045z"/>
		</g>
	</g>
</g>
</svg>
