<?xml version="1.0" encoding="utf-8"?>
<!-- Generator: Adobe Illustrator 14.0.0, SVG Export Plug-In . SVG Version: 6.00 Build 43363)  -->
<!DOCTYPE svg PUBLIC "-//W3C//DTD SVG 1.1//EN" "http://www.w3.org/Graphics/SVG/1.1/DTD/svg11.dtd">
<svg version="1.1" id="Layer_1" xmlns="http://www.w3.org/2000/svg" xmlns:xlink="http://www.w3.org/1999/xlink" x="0px" y="0px"
	 width="29px" height="38.057px" viewBox="0 0 29 38.057" enable-background="new 0 0 29 38.057" xml:space="preserve">
<path fill="#FACC07" d="M25.843,27.598h-0.962c-1.703-2.142-2.076-5-2.16-7.811c-0.402,0.1-0.82,0.157-1.252,0.162
	c0.04,1.195,0.125,2.366,0.329,3.49H7.203c0.334-1.844,0.366-3.802,0.366-5.811v-1.5c0-3.822,3.109-6.931,6.932-6.931
	c1.3,0,2.512,0.364,3.551,0.986c0.368-0.288,0.771-0.532,1.205-0.718c-0.758-0.542-1.603-0.96-2.506-1.216
	c0.557-0.569,0.9-1.346,0.9-2.203c0-1.737-1.414-3.15-3.15-3.15c-1.738,0-3.151,1.413-3.151,3.15c0,0.857,0.345,1.636,0.903,2.205
	c-3.428,0.979-5.944,4.14-5.944,7.877v1.5c0,3.44-0.045,7.274-2.188,9.969H3.158c-1.045,0-1.891,0.846-1.891,1.891
	c0,1.041,0.848,1.891,1.891,1.891h8.191v0.629c0,1.74,1.41,3.152,3.151,3.152c1.736,0,3.15-1.414,3.15-3.152v-0.629h8.191
	c1.045,0,1.891-0.848,1.891-1.891S26.885,27.598,25.843,27.598z M14.501,4.157c1.042,0,1.891,0.848,1.891,1.89
	c0,1.043-0.849,1.891-1.891,1.891c-1.043,0-1.891-0.848-1.891-1.891C12.61,5.005,13.458,4.157,14.501,4.157z M6.917,24.699h15.167
	c0.3,1.092,0.714,2.051,1.252,2.898H5.665C6.203,26.75,6.617,25.791,6.917,24.699z M16.392,32.008c0,1.043-0.849,1.891-1.891,1.891
	c-1.044,0-1.891-0.846-1.891-1.891v-0.629h3.781V32.008z M25.843,30.117H3.158c-0.348,0-0.63-0.281-0.63-0.629
	s0.282-0.631,0.63-0.631h22.685c0.348,0,0.63,0.283,0.63,0.631S26.191,30.117,25.843,30.117z"/>
<g>
	<g>
		<path fill="#FACC07" d="M21.045,10.02c-2.576,0-4.673,2.097-4.673,4.675c0,2.579,2.097,4.673,4.673,4.673
			c2.579,0,4.675-2.096,4.675-4.673C25.72,12.116,23.624,10.02,21.045,10.02z M21.045,18.358c-2.018,0-3.661-1.643-3.661-3.664
			c0-2.02,1.644-3.663,3.661-3.663c2.021,0,3.663,1.642,3.663,3.663C24.708,16.715,23.065,18.358,21.045,18.358z"/>
	</g>
</g>
<g>
	<g>
		<rect x="20.51" y="12.557" fill="#FACC07" width="1.098" height="3.099"/>
	</g>
</g>
<g>
	<g>
		<rect x="20.51" y="16.19" fill="#FACC07" width="1.098" height="0.802"/>
	</g>
</g>
</svg>
