<?xml version="1.0" encoding="utf-8"?>
<!-- Generator: Adobe Illustrator 14.0.0, SVG Export Plug-In . SVG Version: 6.00 Build 43363)  -->
<!DOCTYPE svg PUBLIC "-//W3C//DTD SVG 1.1//EN" "http://www.w3.org/Graphics/SVG/1.1/DTD/svg11.dtd">
<svg version="1.1" id="Layer_1" xmlns="http://www.w3.org/2000/svg" xmlns:xlink="http://www.w3.org/1999/xlink" x="0px" y="0px"
	 width="29px" height="38.057px" viewBox="0 0 29 38.057" enable-background="new 0 0 29 38.057" xml:space="preserve">
<g>
	<g>
		<path fill="#FB0808" d="M28.534,26.267L17.45,7.071c-0.616-1.068-1.72-1.705-2.953-1.705c-1.232,0-2.336,0.637-2.953,1.705
			L0.462,26.267c-0.616,1.067-0.616,2.342,0,3.409c0.616,1.068,1.72,1.705,2.953,1.705h22.167c1.233,0,2.337-0.637,2.953-1.705
			C29.15,28.609,29.15,27.334,28.534,26.267z M27.063,28.825c-0.309,0.538-0.863,0.856-1.481,0.856H3.415
			c-0.618,0-1.172-0.318-1.481-0.856c-0.31-0.535-0.31-1.175,0-1.711L13.017,7.92c0.309-0.537,0.863-0.856,1.481-0.856
			c0.619,0,1.172,0.319,1.482,0.856l11.083,19.194C27.371,27.651,27.371,28.29,27.063,28.825z"/>
	</g>
</g>
<g>
	<g>
		<path fill="#FB0808" d="M14.554,13.056c-0.718,0-1.279,0.386-1.279,1.068c0,2.085,0.245,5.08,0.245,7.164
			c0,0.542,0.474,0.77,1.034,0.77c0.42,0,1.015-0.228,1.015-0.77c0-2.083,0.245-5.079,0.245-7.164
			C15.814,13.442,15.237,13.056,14.554,13.056z"/>
	</g>
</g>
<g>
	<g>
		<path fill="#FB0808" d="M14.571,23.269c-0.77,0-1.349,0.612-1.349,1.348c0,0.72,0.579,1.349,1.349,1.349
			c0.719,0,1.331-0.629,1.331-1.349C15.902,23.881,15.29,23.269,14.571,23.269z"/>
	</g>
</g>
</svg>
