<svg id="Group_11" data-name="Group 11" xmlns="http://www.w3.org/2000/svg" width="100.991" height="14.708" viewBox="0 0 100.991 14.708">
  <g id="star">
    <path id="Path_1" data-name="Path 1" d="M15.278,15.163,9.728,14.8,7.633,9.55,5.538,14.8,0,15.163l4.249,3.616-1.4,5.478,4.78-3.026,4.78,3.026-1.4-5.478Z" transform="translate(0 -9.55)" fill="#ffd400"/>
    <path id="Path_2" data-name="Path 2" d="M259.184,18.779l1.4,5.478-4.78-3.026V9.55l2.095,5.255,5.55.358Z" transform="translate(-248.167 -9.55)" fill="#fdbf00"/>
  </g>
  <g id="star-2" data-name="star" transform="translate(21.565)">
    <path id="Path_1-2" data-name="Path 1" d="M15.278,15.163,9.728,14.8,7.633,9.55,5.538,14.8,0,15.163l4.249,3.616-1.4,5.478,4.78-3.026,4.78,3.026-1.4-5.478Z" transform="translate(0 -9.55)" fill="#ffd400"/>
    <path id="Path_2-2" data-name="Path 2" d="M259.184,18.779l1.4,5.478-4.78-3.026V9.55l2.095,5.255,5.55.358Z" transform="translate(-248.167 -9.55)" fill="#fdbf00"/>
  </g>
  <g id="star-3" data-name="star" transform="translate(44.222)">
    <path id="Path_1-3" data-name="Path 1" d="M15.278,15.163,9.728,14.8,7.633,9.55,5.538,14.8,0,15.163l4.249,3.616-1.4,5.478,4.78-3.026,4.78,3.026-1.4-5.478Z" transform="translate(0 -9.55)" fill="#ffd400"/>
    <path id="Path_2-3" data-name="Path 2" d="M259.184,18.779l1.4,5.478-4.78-3.026V9.55l2.095,5.255,5.55.358Z" transform="translate(-248.167 -9.55)" fill="#fdbf00"/>
  </g>
  <g id="star-4" data-name="star" transform="translate(65.514)">
    <path id="Path_1-4" data-name="Path 1" d="M15.278,15.163,9.728,14.8,7.633,9.55,5.538,14.8,0,15.163l4.249,3.616-1.4,5.478,4.78-3.026,4.78,3.026-1.4-5.478Z" transform="translate(0 -9.55)" fill="#ffd400"/>
    <path id="Path_2-4" data-name="Path 2" d="M259.184,18.779l1.4,5.478-4.78-3.026V9.55l2.095,5.255,5.55.358Z" transform="translate(-248.167 -9.55)" fill="#fdbf00"/>
  </g>
  <g id="star-5" data-name="star" transform="translate(85.714)">
    <path id="Path_1-5" data-name="Path 1" d="M15.278,15.163,9.728,14.8,7.633,9.55,5.538,14.8,0,15.163l4.249,3.616-1.4,5.478,4.78-3.026,4.78,3.026-1.4-5.478Z" transform="translate(0 -9.55)" fill="#ffd400"/>
    <path id="Path_2-5" data-name="Path 2" d="M259.184,18.779l1.4,5.478-4.78-3.026V9.55l2.095,5.255,5.55.358Z" transform="translate(-248.167 -9.55)" fill="#fdbf00"/>
  </g>
</svg>
