<?xml version="1.0" encoding="utf-8"?>
<!-- Generator: Adobe Illustrator 16.0.0, SVG Export Plug-In . SVG Version: 6.00 Build 0)  -->
<!DOCTYPE svg PUBLIC "-//W3C//DTD SVG 1.1//EN" "http://www.w3.org/Graphics/SVG/1.1/DTD/svg11.dtd">
<svg version="1.1" id="Layer_1" xmlns="http://www.w3.org/2000/svg" xmlns:xlink="http://www.w3.org/1999/xlink" x="0px" y="0px"
	 width="22px" height="22px" viewBox="0 0 22 22" enable-background="new 0 0 22 22" xml:space="preserve">
<rect fill="#FFFFFF" width="22" height="22"/>
<g id="Group_4172" transform="translate(-1348.698 -61)">
	<g id="search_5_" transform="translate(1348.698 61)">
		<g id="Group_4069">
			<g id="Group_4068">
				<path id="Path_9558" fill="#747474" d="M9.688,0C4.337,0,0,4.337,0,9.688c0,5.351,4.337,9.688,9.688,9.688
					c5.351,0,9.688-4.337,9.688-9.688C19.369,4.34,15.035,0.006,9.688,0z M9.688,17.588c-4.363,0-7.9-3.537-7.9-7.9
					c0-4.363,3.537-7.9,7.9-7.9s7.9,3.537,7.9,7.9l0,0C17.583,14.049,14.049,17.583,9.688,17.588z"/>
			</g>
		</g>
		<g id="Group_4071" transform="translate(15.084 15.084)">
			<g id="Group_4070">
				<path id="Path_9559" fill="#747474" d="M6.654,5.389L1.527,0.262c-0.35-0.35-0.916-0.35-1.266,0s-0.35,0.916,0,1.266l0,0
					l5.127,5.127c0.35,0.35,0.916,0.35,1.266,0S7.004,5.738,6.654,5.389z"/>
			</g>
		</g>
	</g>
</g>
</svg>
