<?xml version="1.0" encoding="utf-8"?>
<!-- Generator: Adobe Illustrator 14.0.0, SVG Export Plug-In . SVG Version: 6.00 Build 43363)  -->
<!DOCTYPE svg PUBLIC "-//W3C//DTD SVG 1.1//EN" "http://www.w3.org/Graphics/SVG/1.1/DTD/svg11.dtd">
<svg version="1.1" id="Layer_1" xmlns="http://www.w3.org/2000/svg" xmlns:xlink="http://www.w3.org/1999/xlink" x="0px" y="0px"
	 width="16px" height="16px" viewBox="0 0 16 16" enable-background="new 0 0 16 16" xml:space="preserve">
<g>
	<path fill="#8A7ABF" d="M15.861,15.188l-3.89-3.889c1.044-1.199,1.676-2.765,1.676-4.475C13.647,3.059,10.585,0,6.823,0
		C3.059,0,0,3.063,0,6.824c0,3.762,3.062,6.824,6.824,6.824c1.71,0,3.275-0.632,4.475-1.675l3.889,3.889
		c0.093,0.093,0.217,0.143,0.338,0.143c0.12,0,0.244-0.047,0.337-0.143C16.046,15.678,16.046,15.372,15.861,15.188z M0.954,6.824
		c0-3.236,2.633-5.866,5.865-5.866c3.236,0,5.865,2.633,5.865,5.866c0,3.233-2.629,5.87-5.865,5.87
		C3.587,12.693,0.954,10.061,0.954,6.824z"/>
</g>
</svg>
