<svg xmlns="http://www.w3.org/2000/svg" width="22" height="22" viewBox="0 0 22 22">
  <g id="Group_4172" data-name="Group 4172" transform="translate(-1348.698 -61)">
    <g id="search_5_" data-name="search (5)" transform="translate(1348.698 61)">
      <g id="Group_4069" data-name="Group 4069">
        <g id="Group_4068" data-name="Group 4068">
          <path id="Path_9558" data-name="Path 9558" d="M9.688,0a9.688,9.688,0,1,0,9.688,9.688A9.7,9.7,0,0,0,9.688,0Zm0,17.588a7.9,7.9,0,1,1,7.9-7.9A7.909,7.909,0,0,1,9.688,17.588Z" fill="#747474"/>
        </g>
      </g>
      <g id="Group_4071" data-name="Group 4071" transform="translate(15.084 15.084)">
        <g id="Group_4070" data-name="Group 4070">
          <path id="Path_9559" data-name="Path 9559" d="M357.7,356.435l-5.127-5.127a.894.894,0,1,0-1.265,1.265l5.127,5.127a.894.894,0,0,0,1.265-1.265Z" transform="translate(-351.046 -351.046)" fill="#747474"/>
        </g>
      </g>
    </g>
  </g>
</svg>
