<?xml version="1.0" encoding="utf-8"?>
<!-- Generator: Adobe Illustrator 14.0.0, SVG Export Plug-In . SVG Version: 6.00 Build 43363)  -->
<!DOCTYPE svg PUBLIC "-//W3C//DTD SVG 1.1//EN" "http://www.w3.org/Graphics/SVG/1.1/DTD/svg11.dtd">
<svg version="1.1" id="Layer_1" xmlns="http://www.w3.org/2000/svg" xmlns:xlink="http://www.w3.org/1999/xlink" x="0px" y="0px"
	 width="30px" height="30px" viewBox="0 0 30 30" enable-background="new 0 0 30 30" xml:space="preserve">
<path fill="#8A7ABF" d="M28.494,16.171c-0.708-1.034-1.621-1.892-2.678-2.53c1.244-1.178,2.022-2.844,2.022-4.689
	c0-3.563-2.897-6.462-6.462-6.462c-2.111,0-4.092,1.044-5.294,2.76c-0.306-0.044-0.617-0.069-0.935-0.069
	c-0.317,0-0.629,0.025-0.935,0.069c-1.203-1.716-3.182-2.76-5.294-2.76c-3.563,0-6.462,2.898-6.462,6.462
	c0,1.845,0.778,3.511,2.023,4.689c-1.057,0.638-1.969,1.496-2.677,2.53c-0.985,1.437-1.505,3.115-1.505,4.853v3.596h6.229v2.691
	H23.77v-2.691H30v-3.596C30,19.287,29.479,17.607,28.494,16.171z M21.378,4.085c2.685,0,4.868,2.183,4.868,4.867
	c0,2.683-2.186,4.867-4.868,4.867c-0.048,0-0.095-0.001-0.144-0.003c0.002-0.009,0.006-0.021,0.01-0.03
	c0.083-0.236,0.152-0.477,0.208-0.725c0.004-0.018,0.009-0.035,0.013-0.053c0.014-0.066,0.027-0.133,0.039-0.202
	c0.006-0.032,0.012-0.063,0.018-0.095c0.011-0.06,0.02-0.121,0.026-0.182c0.007-0.042,0.013-0.084,0.019-0.126
	c0.006-0.053,0.012-0.107,0.017-0.161c0.005-0.055,0.01-0.11,0.013-0.166c0.004-0.043,0.008-0.087,0.01-0.131
	c0.004-0.094,0.006-0.188,0.008-0.282c0-0.007,0-0.014,0-0.021c0-0.004,0-0.008,0-0.012c0-0.096-0.004-0.192-0.008-0.287
	c-0.002-0.027-0.004-0.056-0.006-0.083c-0.004-0.081-0.011-0.162-0.018-0.241c-0.002-0.019-0.004-0.037-0.006-0.055
	c-0.241-2.329-1.713-4.323-3.835-5.245C18.654,4.695,19.979,4.085,21.378,4.085z M13.512,7.061c0.048-0.017,0.097-0.034,0.146-0.05
	c0.037-0.012,0.075-0.024,0.113-0.035c0.027-0.008,0.054-0.015,0.082-0.023c0.049-0.013,0.099-0.026,0.149-0.038
	c0.368-0.089,0.752-0.138,1.147-0.138c0.396,0,0.781,0.049,1.15,0.139c0.049,0.011,0.098,0.024,0.146,0.038
	c0.027,0.008,0.056,0.015,0.082,0.023C16.564,6.988,16.604,7,16.641,7.012c0.049,0.015,0.1,0.032,0.146,0.049
	c0.016,0.006,0.029,0.01,0.046,0.016c1.627,0.602,2.847,2.051,3.124,3.809c0.002,0.014,0.004,0.027,0.007,0.042
	c0.009,0.061,0.015,0.12,0.021,0.18c0.004,0.022,0.007,0.044,0.009,0.066c0.005,0.056,0.009,0.11,0.013,0.166
	c0.001,0.023,0.004,0.047,0.006,0.071c0.002,0.071,0.004,0.143,0.006,0.214c0,0.006,0,0.012,0,0.019c0,0.003,0,0.006,0,0.008
	c0,0.07-0.004,0.138-0.006,0.207c-0.002,0.021-0.003,0.043-0.004,0.064c-0.004,0.066-0.009,0.133-0.016,0.198
	c-0.002,0.025-0.006,0.051-0.01,0.076c-0.004,0.043-0.01,0.085-0.017,0.127c-0.003,0.033-0.008,0.065-0.014,0.098
	c-0.009,0.05-0.019,0.1-0.026,0.149c-0.009,0.043-0.019,0.086-0.027,0.13c-0.006,0.027-0.012,0.053-0.019,0.079
	c-0.015,0.064-0.032,0.129-0.052,0.193c-0.006,0.025-0.014,0.051-0.021,0.076c-0.012,0.036-0.023,0.073-0.035,0.109
	c-0.01,0.029-0.02,0.058-0.028,0.086c-0.013,0.033-0.022,0.066-0.035,0.099c-0.021,0.055-0.042,0.11-0.065,0.165
	c-0.01,0.023-0.02,0.048-0.031,0.072c-0.02,0.045-0.038,0.09-0.061,0.135c-0.003,0.005-0.005,0.011-0.007,0.016
	c-0.008,0.016-0.017,0.031-0.022,0.047c-0.023,0.048-0.049,0.096-0.073,0.143c-0.011,0.019-0.021,0.037-0.029,0.056
	c0,0-0.002,0.002-0.002,0.003c-0.026,0.05-0.056,0.1-0.085,0.149c-0.014,0.019-0.023,0.039-0.035,0.058
	c-0.031,0.052-0.064,0.103-0.099,0.153c-0.021,0.031-0.044,0.062-0.065,0.093c-0.018,0.026-0.035,0.052-0.055,0.078
	c-0.023,0.033-0.051,0.067-0.075,0.099c-0.017,0.022-0.034,0.044-0.052,0.066c-0.027,0.034-0.055,0.067-0.081,0.1
	c-0.019,0.02-0.035,0.04-0.054,0.06c-0.027,0.033-0.058,0.066-0.086,0.098c-0.019,0.02-0.035,0.038-0.055,0.056
	c-0.049,0.05-0.097,0.1-0.146,0.148c-0.028,0.028-0.061,0.058-0.09,0.085c-0.021,0.02-0.043,0.039-0.063,0.058
	c-0.036,0.031-0.069,0.062-0.106,0.092c-0.019,0.015-0.035,0.031-0.055,0.045c-0.043,0.035-0.088,0.069-0.132,0.104
	c-0.013,0.01-0.022,0.02-0.036,0.028c-0.811,0.603-1.813,0.959-2.898,0.959c-1.084,0-2.087-0.356-2.898-0.959
	c-0.012-0.009-0.023-0.019-0.035-0.028c-0.044-0.034-0.089-0.067-0.132-0.104c-0.019-0.015-0.037-0.03-0.054-0.045
	c-0.036-0.03-0.072-0.061-0.107-0.092c-0.021-0.021-0.042-0.038-0.063-0.058c-0.03-0.028-0.06-0.057-0.09-0.085
	c-0.05-0.049-0.1-0.099-0.147-0.149c-0.018-0.018-0.036-0.036-0.053-0.055c-0.029-0.032-0.058-0.065-0.087-0.098
	c-0.018-0.02-0.035-0.04-0.052-0.06c-0.027-0.033-0.054-0.066-0.081-0.1c-0.017-0.022-0.035-0.044-0.052-0.066
	c-0.025-0.032-0.05-0.065-0.075-0.099c-0.019-0.026-0.037-0.052-0.055-0.078c-0.022-0.031-0.044-0.062-0.065-0.093
	c-0.034-0.051-0.067-0.103-0.099-0.154c-0.012-0.02-0.023-0.039-0.034-0.058c-0.03-0.05-0.059-0.1-0.087-0.151
	c-0.009-0.019-0.02-0.038-0.029-0.056c-0.025-0.048-0.051-0.095-0.073-0.144c-0.009-0.017-0.017-0.034-0.025-0.051
	c-0.001-0.003-0.002-0.005-0.004-0.008c-0.021-0.046-0.043-0.094-0.064-0.141c-0.009-0.022-0.02-0.045-0.029-0.067
	c-0.023-0.056-0.045-0.112-0.067-0.168c-0.01-0.03-0.021-0.062-0.033-0.092c-0.01-0.031-0.021-0.064-0.032-0.095
	c-0.011-0.034-0.022-0.069-0.034-0.104c-0.015-0.052-0.03-0.104-0.044-0.157c-0.009-0.037-0.019-0.073-0.028-0.11
	c-0.007-0.029-0.014-0.059-0.021-0.088c-0.007-0.036-0.016-0.072-0.022-0.107c-0.011-0.057-0.022-0.113-0.03-0.169
	c-0.005-0.031-0.01-0.062-0.014-0.092c-0.007-0.046-0.012-0.091-0.018-0.137c-0.002-0.022-0.005-0.045-0.008-0.068
	c-0.006-0.067-0.012-0.135-0.015-0.203c-0.001-0.02-0.001-0.039-0.002-0.059c-0.003-0.072-0.006-0.146-0.006-0.219
	c0-0.079,0.002-0.157,0.006-0.234c0.001-0.021,0.003-0.042,0.004-0.063c0.004-0.058,0.008-0.116,0.013-0.174
	c0.002-0.021,0.004-0.04,0.007-0.06c0.007-0.063,0.015-0.125,0.023-0.187c0.002-0.012,0.004-0.024,0.006-0.037
	c0.272-1.758,1.493-3.207,3.121-3.81C13.481,7.071,13.496,7.066,13.512,7.061z M4.053,8.953c0-2.684,2.184-4.867,4.867-4.867
	c1.4,0,2.724,0.61,3.638,1.637c-2.123,0.922-3.595,2.917-3.835,5.248c-0.001,0.016-0.002,0.031-0.004,0.047
	C8.71,11.1,8.704,11.184,8.7,11.267c-0.001,0.026-0.003,0.051-0.004,0.077c-0.004,0.1-0.008,0.2-0.008,0.301
	s0.003,0.203,0.008,0.305c0.001,0.041,0.005,0.081,0.008,0.121c0.004,0.059,0.008,0.117,0.014,0.175
	c0.004,0.052,0.01,0.103,0.017,0.155c0.005,0.045,0.011,0.089,0.017,0.134c0.009,0.059,0.017,0.117,0.027,0.175
	c0.005,0.034,0.012,0.069,0.018,0.103c0.013,0.065,0.024,0.13,0.039,0.194c0.005,0.021,0.009,0.042,0.015,0.064
	c0.054,0.239,0.122,0.474,0.202,0.702c0.005,0.015,0.009,0.03,0.014,0.044C9.016,13.819,8.968,13.82,8.92,13.82
	C6.237,13.819,4.053,11.636,4.053,8.953z M7.865,19.119c-0.018,0.027-0.035,0.056-0.052,0.084c-0.037,0.059-0.072,0.117-0.107,0.178
	c-0.02,0.032-0.038,0.064-0.058,0.1c-0.031,0.056-0.062,0.111-0.092,0.166c-0.019,0.037-0.038,0.07-0.056,0.106
	c-0.029,0.056-0.058,0.111-0.085,0.167c-0.018,0.035-0.035,0.07-0.052,0.105c-0.028,0.061-0.055,0.119-0.082,0.179
	c-0.015,0.032-0.03,0.063-0.044,0.097c-0.031,0.072-0.061,0.145-0.09,0.217c-0.008,0.021-0.017,0.043-0.026,0.063
	c-0.036,0.094-0.072,0.188-0.105,0.283c-0.008,0.021-0.015,0.045-0.022,0.066c-0.025,0.072-0.049,0.146-0.073,0.221
	c-0.01,0.033-0.021,0.066-0.03,0.101c-0.019,0.063-0.037,0.125-0.055,0.188c-0.01,0.037-0.02,0.076-0.03,0.111
	c-0.016,0.063-0.031,0.122-0.045,0.184c-0.009,0.037-0.018,0.076-0.027,0.115c-0.014,0.063-0.026,0.123-0.039,0.186
	c-0.008,0.037-0.015,0.074-0.022,0.111C6.66,22.215,6.65,22.282,6.638,22.35c-0.005,0.031-0.011,0.063-0.016,0.096
	c-0.015,0.101-0.028,0.199-0.04,0.3c0,0.002,0,0.003,0,0.004c-0.01,0.091-0.019,0.185-0.026,0.274H1.893v-2
	c0-2.73,1.571-5.184,4.031-6.349c0.896,0.471,1.915,0.739,2.996,0.739c0.313,0,0.626-0.023,0.938-0.069
	c0.048,0.069,0.098,0.138,0.148,0.205c0.017,0.022,0.036,0.044,0.052,0.066c0.051,0.063,0.102,0.129,0.155,0.19
	c0.022,0.026,0.044,0.051,0.066,0.076c0.049,0.057,0.1,0.112,0.151,0.167c0.026,0.029,0.054,0.058,0.082,0.086
	c0.047,0.05,0.095,0.097,0.143,0.144c0.018,0.02,0.035,0.035,0.054,0.055c-0.069,0.042-0.138,0.084-0.207,0.129
	c-0.011,0.008-0.021,0.016-0.033,0.021c-0.068,0.043-0.135,0.089-0.202,0.135c-0.023,0.016-0.046,0.033-0.069,0.049
	c-0.059,0.041-0.118,0.084-0.176,0.127c-0.018,0.014-0.037,0.027-0.056,0.041c-0.074,0.057-0.147,0.114-0.219,0.172
	c-0.016,0.014-0.031,0.025-0.047,0.039c-0.058,0.046-0.115,0.096-0.17,0.143c-0.022,0.021-0.044,0.039-0.065,0.06
	c-0.057,0.049-0.112,0.101-0.167,0.149c-0.014,0.015-0.028,0.026-0.043,0.041c-0.067,0.063-0.134,0.127-0.2,0.193
	c-0.017,0.018-0.034,0.034-0.051,0.053c-0.05,0.051-0.101,0.103-0.149,0.155c-0.019,0.021-0.039,0.041-0.059,0.063
	c-0.055,0.06-0.109,0.121-0.163,0.184c-0.008,0.01-0.017,0.02-0.025,0.029c-0.061,0.07-0.121,0.143-0.18,0.217
	c-0.017,0.02-0.032,0.04-0.049,0.063c-0.044,0.056-0.087,0.111-0.131,0.17c-0.016,0.021-0.033,0.045-0.049,0.065
	c-0.056,0.077-0.112,0.153-0.166,0.231C7.976,18.947,7.919,19.032,7.865,19.119z M22.175,24.615v1.096H8.123v-1.092v-0.903
	c0-0.089,0.001-0.176,0.005-0.265c0.001-0.029,0.003-0.059,0.004-0.086c0.003-0.061,0.005-0.117,0.01-0.176
	c0.002-0.035,0.006-0.071,0.01-0.105c0.005-0.053,0.009-0.104,0.014-0.154c0.004-0.037,0.01-0.076,0.015-0.113
	c0.006-0.047,0.013-0.098,0.02-0.146c0.006-0.039,0.013-0.075,0.019-0.114c0.008-0.047,0.015-0.094,0.024-0.142
	c0.007-0.039,0.016-0.078,0.024-0.117c0.009-0.046,0.019-0.09,0.029-0.135c0.009-0.04,0.019-0.079,0.028-0.118
	c0.011-0.044,0.021-0.088,0.033-0.132c0.01-0.04,0.021-0.079,0.033-0.118c0.012-0.043,0.024-0.086,0.037-0.129
	c0.013-0.038,0.026-0.077,0.038-0.118c0.014-0.041,0.027-0.083,0.041-0.124c0.013-0.039,0.028-0.078,0.042-0.117
	c0.015-0.041,0.03-0.08,0.045-0.121c0.015-0.039,0.031-0.078,0.047-0.117c0.015-0.039,0.032-0.08,0.049-0.118
	c0.017-0.039,0.034-0.078,0.051-0.114c0.018-0.04,0.035-0.079,0.053-0.118c0.018-0.038,0.037-0.075,0.055-0.112
	c0.02-0.037,0.038-0.076,0.058-0.114c0.02-0.037,0.04-0.074,0.059-0.111c0.02-0.036,0.041-0.073,0.062-0.11s0.042-0.072,0.063-0.108
	c0.022-0.037,0.042-0.073,0.065-0.11c0.022-0.035,0.045-0.07,0.068-0.105c0.022-0.036,0.045-0.071,0.068-0.106
	C9.316,19.8,9.34,19.766,9.365,19.73c0.023-0.035,0.048-0.069,0.072-0.104c0.025-0.033,0.05-0.067,0.076-0.103
	c0.024-0.032,0.05-0.066,0.076-0.102c0.026-0.031,0.053-0.066,0.079-0.1c0.026-0.032,0.053-0.065,0.081-0.098
	c0.026-0.033,0.054-0.065,0.082-0.098c0.028-0.031,0.056-0.063,0.083-0.098C9.943,19,9.971,18.968,10,18.938
	c0.028-0.03,0.057-0.063,0.087-0.094c0.03-0.029,0.06-0.06,0.09-0.091c0.03-0.028,0.06-0.06,0.09-0.089
	c0.031-0.029,0.062-0.059,0.093-0.087c0.032-0.029,0.063-0.058,0.095-0.087c0.032-0.029,0.064-0.057,0.096-0.086
	c0.033-0.026,0.065-0.055,0.098-0.082c0.033-0.027,0.066-0.055,0.099-0.08c0.033-0.027,0.067-0.055,0.102-0.081
	c0.033-0.025,0.068-0.052,0.102-0.077c0.035-0.025,0.069-0.051,0.105-0.075c0.034-0.024,0.069-0.051,0.105-0.075
	c0.036-0.022,0.071-0.049,0.108-0.072c0.036-0.022,0.072-0.047,0.107-0.069c0.037-0.024,0.075-0.047,0.113-0.069
	c0.036-0.021,0.073-0.045,0.109-0.064c0.039-0.022,0.077-0.047,0.116-0.067c0.037-0.021,0.075-0.04,0.113-0.062
	c0.039-0.021,0.078-0.043,0.118-0.063c0.038-0.02,0.077-0.039,0.115-0.059c0.03-0.016,0.061-0.029,0.091-0.043
	c0.896,0.471,1.916,0.738,2.996,0.738c1.083,0,2.101-0.269,2.997-0.738c0.03,0.014,0.062,0.027,0.09,0.043
	c0.039,0.02,0.078,0.039,0.117,0.059s0.078,0.04,0.117,0.063c0.039,0.021,0.076,0.041,0.114,0.062
	c0.038,0.022,0.075,0.045,0.114,0.066c0.035,0.021,0.074,0.044,0.109,0.065c0.037,0.022,0.075,0.045,0.111,0.068
	c0.037,0.023,0.073,0.048,0.107,0.07c0.037,0.023,0.072,0.05,0.107,0.072c0.036,0.024,0.07,0.051,0.105,0.075
	c0.035,0.025,0.068,0.05,0.104,0.075s0.069,0.052,0.104,0.077c0.033,0.026,0.066,0.054,0.101,0.08s0.067,0.054,0.101,0.081
	s0.065,0.056,0.099,0.082c0.03,0.029,0.063,0.057,0.096,0.086s0.063,0.058,0.095,0.086c0.03,0.029,0.063,0.059,0.094,0.088
	s0.06,0.061,0.091,0.089c0.03,0.029,0.06,0.062,0.09,0.091c0.03,0.031,0.06,0.063,0.086,0.092c0.03,0.032,0.06,0.063,0.087,0.096
	c0.029,0.031,0.057,0.063,0.083,0.094c0.029,0.033,0.058,0.066,0.083,0.1c0.027,0.031,0.055,0.064,0.08,0.096
	c0.025,0.033,0.055,0.068,0.08,0.102c0.025,0.034,0.051,0.068,0.075,0.102c0.026,0.033,0.052,0.067,0.075,0.103
	c0.024,0.035,0.05,0.069,0.072,0.103c0.023,0.037,0.049,0.071,0.072,0.106c0.021,0.035,0.045,0.069,0.066,0.106
	c0.023,0.035,0.047,0.07,0.068,0.105c0.022,0.037,0.043,0.073,0.065,0.107c0.021,0.037,0.043,0.074,0.063,0.111
	c0.02,0.036,0.041,0.073,0.061,0.11c0.021,0.037,0.041,0.074,0.061,0.11c0.021,0.039,0.038,0.078,0.057,0.115
	c0.02,0.037,0.039,0.073,0.057,0.112s0.035,0.077,0.055,0.117c0.017,0.037,0.033,0.076,0.051,0.114
	c0.017,0.039,0.031,0.08,0.049,0.119c0.017,0.039,0.031,0.078,0.048,0.117c0.015,0.041,0.028,0.08,0.045,0.121
	c0.015,0.039,0.028,0.077,0.042,0.117c0.016,0.041,0.025,0.084,0.04,0.125c0.015,0.04,0.026,0.079,0.039,0.117
	c0.014,0.043,0.024,0.086,0.036,0.129c0.012,0.039,0.023,0.078,0.033,0.118c0.012,0.044,0.022,0.088,0.033,0.132
	c0.01,0.039,0.02,0.078,0.027,0.118c0.01,0.045,0.02,0.089,0.029,0.135c0.008,0.039,0.016,0.078,0.022,0.117
	c0.011,0.046,0.017,0.094,0.023,0.139c0.008,0.039,0.014,0.077,0.021,0.117c0.006,0.047,0.012,0.097,0.018,0.146
	c0.007,0.037,0.013,0.074,0.017,0.112c0.007,0.052,0.011,0.103,0.015,0.155c0.004,0.034,0.008,0.068,0.01,0.105
	c0.006,0.059,0.008,0.115,0.012,0.176c0,0.027,0.003,0.057,0.004,0.086c0.004,0.089,0.005,0.176,0.005,0.265V24.615z M28.404,23.021
	h-4.661v0.002c-0.017-0.193-0.038-0.388-0.067-0.578c-0.005-0.031-0.01-0.062-0.015-0.092c-0.011-0.068-0.022-0.139-0.035-0.209
	c-0.007-0.035-0.015-0.07-0.021-0.107c-0.014-0.063-0.025-0.125-0.041-0.189c-0.008-0.035-0.017-0.074-0.024-0.111
	c-0.015-0.063-0.03-0.122-0.047-0.185c-0.009-0.036-0.019-0.073-0.029-0.11c-0.017-0.064-0.034-0.127-0.055-0.19
	c-0.011-0.032-0.021-0.065-0.03-0.101c-0.023-0.074-0.048-0.148-0.074-0.224c-0.007-0.021-0.014-0.042-0.021-0.063
	c-0.032-0.095-0.068-0.189-0.104-0.284c-0.01-0.02-0.017-0.039-0.023-0.061c-0.03-0.071-0.061-0.146-0.092-0.219
	c-0.016-0.031-0.028-0.063-0.045-0.097c-0.026-0.06-0.054-0.118-0.082-0.179c-0.017-0.035-0.033-0.069-0.051-0.104
	c-0.027-0.057-0.057-0.112-0.088-0.169c-0.018-0.035-0.035-0.068-0.054-0.104c-0.031-0.057-0.062-0.112-0.093-0.168
	c-0.021-0.033-0.039-0.066-0.06-0.1c-0.034-0.061-0.071-0.12-0.106-0.179c-0.018-0.028-0.033-0.056-0.051-0.083
	c-0.055-0.087-0.11-0.172-0.168-0.258c-0.056-0.077-0.11-0.153-0.166-0.23c-0.017-0.021-0.033-0.044-0.05-0.066
	c-0.044-0.058-0.087-0.113-0.132-0.17c-0.016-0.021-0.031-0.041-0.048-0.062c-0.06-0.074-0.119-0.146-0.181-0.218
	c-0.008-0.01-0.017-0.02-0.024-0.027c-0.054-0.063-0.108-0.125-0.163-0.186c-0.02-0.021-0.039-0.043-0.059-0.063
	c-0.049-0.054-0.1-0.105-0.149-0.156c-0.017-0.018-0.032-0.033-0.051-0.052c-0.065-0.065-0.132-0.132-0.199-0.194
	c-0.014-0.014-0.028-0.025-0.042-0.039c-0.057-0.051-0.111-0.103-0.168-0.15c-0.021-0.02-0.044-0.039-0.066-0.059
	c-0.056-0.049-0.111-0.098-0.17-0.144c-0.017-0.014-0.031-0.026-0.048-0.039c-0.071-0.058-0.145-0.116-0.219-0.172
	c-0.019-0.015-0.037-0.026-0.058-0.041c-0.058-0.043-0.114-0.085-0.174-0.127c-0.024-0.017-0.047-0.033-0.07-0.049
	c-0.065-0.045-0.133-0.091-0.199-0.134c-0.012-0.008-0.023-0.016-0.035-0.022c-0.068-0.045-0.137-0.087-0.207-0.129
	c0.02-0.017,0.035-0.034,0.053-0.052c0.051-0.049,0.1-0.098,0.146-0.146c0.027-0.027,0.053-0.055,0.079-0.083
	c0.053-0.056,0.103-0.112,0.153-0.171c0.021-0.025,0.041-0.048,0.063-0.072c0.055-0.063,0.105-0.129,0.157-0.193
	c0.017-0.021,0.034-0.043,0.05-0.064c0.053-0.067,0.102-0.137,0.15-0.206c0.31,0.045,0.625,0.068,0.937,0.068
	c1.081,0,2.101-0.268,2.996-0.739c2.461,1.166,4.03,3.618,4.03,6.35V23.021z"/>
</svg>
