<svg xmlns="http://www.w3.org/2000/svg" width="174.668" height="151.629" viewBox="0 0 174.668 151.629">
  <g id="Group_39" data-name="Group 39" transform="translate(-595.581 -123.751)">
    <g id="Ellipse_3" data-name="Ellipse 3" transform="translate(628 144)" fill="none" stroke="#fff" stroke-linecap="round" stroke-width="8">
      <circle cx="57.5" cy="57.5" r="57.5" stroke="none"/>
      <circle cx="57.5" cy="57.5" r="53.5" fill="none"/>
    </g>
    <path id="Polygon_1" data-name="Polygon 1" d="M11.5,0l3.738,6.988L23,8.4l-5.453,5.734L18.607,22,11.5,18.556,4.393,22l1.06-7.862L0,8.4,7.762,6.988Z" transform="translate(595.581 212.708) rotate(-8)" fill="#fff"/>
    <g id="Polygon_3" data-name="Polygon 3" transform="matrix(0.966, 0.259, -0.259, 0.966, 743.204, 129.262)" fill="none" stroke-linecap="round">
      <path d="M14,0l4.55,8.258L28,9.931l-6.638,6.777L22.652,26,14,21.93,5.348,26l1.29-9.292L0,9.931,9.45,8.258Z" stroke="none"/>
      <path d="M 14 2.072195053100586 L 10.32584953308105 8.740550994873047 L 10.09513092041016 9.1593017578125 L 9.624340057373047 9.242660522460938 L 2.040641784667969 10.58537673950195 L 7.352329254150391 16.00822067260742 L 7.695989608764648 16.35906982421875 L 7.628429412841797 16.84552001953125 L 6.59185791015625 24.30964660644531 L 13.57437992095947 21.02546119689941 L 14 20.82527160644531 L 14.42562007904053 21.02546119689941 L 21.40813064575195 24.30964660644531 L 20.37155914306641 16.84552001953125 L 20.30400085449219 16.35906982421875 L 20.64765930175781 16.00822067260742 L 25.9593563079834 10.58536815643311 L 18.37565994262695 9.242660522460938 L 17.90486907958984 9.1593017578125 L 17.67415046691895 8.740550994873047 L 14 2.072195053100586 M 14 1.9073486328125e-06 L 18.54999923706055 8.257970809936523 L 28 9.931110382080078 L 21.3620491027832 16.70796966552734 L 22.65246963500977 26 L 14 21.93036079406738 L 5.34752082824707 26 L 6.637939453125 16.70796966552734 L 0 9.931121826171875 L 9.450000762939453 8.257970809936523 L 14 1.9073486328125e-06 Z" stroke="none" fill="#fff"/>
    </g>
    <path id="Polygon_5" data-name="Polygon 5" d="M4,0,5.3,2.541,8,3.056,6.1,5.141,6.472,8,4,6.748,1.528,8,1.9,5.141,0,3.056l2.7-.515Z" transform="matrix(1, 0.017, -0.017, 1, 733.076, 237.751)" fill="#fff"/>
    <path id="Polygon_7" data-name="Polygon 7" d="M4,0,5.3,2.541,8,3.056,6.1,5.141,6.472,8,4,6.748,1.528,8,1.9,5.141,0,3.056l2.7-.515Z" transform="matrix(1, 0.017, -0.017, 1, 663.076, 132.751)" fill="#fff"/>
    <g id="Polygon_6" data-name="Polygon 6" transform="matrix(1, 0.017, -0.017, 1, 741.076, 245.751)" fill="none" stroke-linecap="round">
      <path d="M4,0,5.3,2.541,8,3.056,6.1,5.141,6.472,8,4,6.748,1.528,8,1.9,5.141,0,3.056l2.7-.515Z" stroke="none"/>
      <path d="M 4 2.195515632629395 L 3.590250015258789 2.996390819549561 L 3.367559909820557 3.431641101837158 L 2.88730001449585 3.523211002349854 L 1.941060543060303 3.703634262084961 L 2.636330127716064 4.468050956726074 L 2.947490215301514 4.810160636901855 L 2.888350009918213 5.268811225891113 L 2.761266708374023 6.254281997680664 L 3.548140048980713 5.855710983276367 L 4 5.6268310546875 L 4.451859951019287 5.855710983276367 L 5.238733291625977 6.254281997680664 L 5.111649990081787 5.268811225891113 L 5.052510261535645 4.810160636901855 L 5.363670349121094 4.468050956726074 L 6.058939456939697 3.703634262084961 L 5.11269998550415 3.523211002349854 L 4.632440090179443 3.431641101837158 L 4.409749984741211 2.996390819549561 L 4 2.195515632629395 M 4 9.5367431640625e-07 L 5.300000190734863 2.540910720825195 L 8 3.055730819702148 L 6.103440284729004 5.140911102294922 L 6.472139835357666 8.000000953674316 L 4 6.747800827026367 L 1.527860164642334 8.000000953674316 L 1.896560192108154 5.140911102294922 L 0 3.055730819702148 L 2.699999809265137 2.540910720825195 L 4 9.5367431640625e-07 Z" stroke="none" fill="#fff"/>
    </g>
    <g id="Polygon_9" data-name="Polygon 9" transform="matrix(1, 0.017, -0.017, 1, 618.076, 233.751)" fill="none" stroke-linecap="round">
      <path d="M4,0,5.3,2.541,8,3.056,6.1,5.141,6.472,8,4,6.748,1.528,8,1.9,5.141,0,3.056l2.7-.515Z" stroke="none"/>
      <path d="M 4 2.195515632629395 L 3.590250015258789 2.996390819549561 L 3.367559909820557 3.431641101837158 L 2.88730001449585 3.523211002349854 L 1.941060543060303 3.703634262084961 L 2.636330127716064 4.468050956726074 L 2.947490215301514 4.810160636901855 L 2.888350009918213 5.268811225891113 L 2.761266708374023 6.254281997680664 L 3.548140048980713 5.855710983276367 L 4 5.6268310546875 L 4.451859951019287 5.855710983276367 L 5.238733291625977 6.254281997680664 L 5.111649990081787 5.268811225891113 L 5.052510261535645 4.810160636901855 L 5.363670349121094 4.468050956726074 L 6.058939456939697 3.703634262084961 L 5.11269998550415 3.523211002349854 L 4.632440090179443 3.431641101837158 L 4.409749984741211 2.996390819549561 L 4 2.195515632629395 M 4 9.5367431640625e-07 L 5.300000190734863 2.540910720825195 L 8 3.055730819702148 L 6.103440284729004 5.140911102294922 L 6.472139835357666 8.000000953674316 L 4 6.747800827026367 L 1.527860164642334 8.000000953674316 L 1.896560192108154 5.140911102294922 L 0 3.055730819702148 L 2.699999809265137 2.540910720825195 L 4 9.5367431640625e-07 Z" stroke="none" fill="#fff"/>
    </g>
    <g id="Polygon_4" data-name="Polygon 4" transform="matrix(0.966, 0.259, -0.259, 0.966, 748.239, 190.398)" fill="#fff" stroke-linecap="round">
      <path d="M 10.70406532287598 12.15482139587402 L 7.212810039520264 10.51273059844971 L 7 10.41264057159424 L 6.787189960479736 10.51273059844971 L 3.295934915542603 12.15482139587402 L 3.814219951629639 8.422760963439941 L 3.847990036010742 8.179531097412109 L 3.676170110702515 8.004111289978027 L 1.020318508148193 5.292685508728027 L 4.812170028686523 4.621330738067627 L 5.047560214996338 4.579660892486572 L 5.162930011749268 4.370280742645264 L 7.000000476837158 1.036106944084167 L 8.837070465087891 4.370270729064941 L 8.95244026184082 4.57965087890625 L 9.187829971313477 4.621320724487305 L 12.97968292236328 5.292683601379395 L 10.32382965087891 8.004111289978027 L 10.15200996398926 8.179531097412109 L 10.1857795715332 8.422760963439941 L 10.70406532287598 12.15482139587402 Z" stroke="none"/>
      <path d="M 7.000000953674316 2.072195053100586 L 5.600850105285645 4.611571311950684 L 5.370129585266113 5.03032112121582 L 4.89933967590332 5.113680839538574 L 2.040644645690918 5.619818210601807 L 4.033359527587891 7.654231071472168 L 4.377019882202148 8.005081176757813 L 4.309459686279297 8.491531372070313 L 3.918097496032715 11.30964660644531 L 6.574379920959473 10.06028079986572 L 7 9.860091209411621 L 7.425620079040527 10.06028079986572 L 10.08190250396729 11.30964660644531 L 9.690540313720703 8.491531372070313 L 9.622980117797852 8.005081176757813 L 9.966640472412109 7.654231071472168 L 11.95935821533203 5.619814872741699 L 9.10066032409668 5.113670825958252 L 8.62986946105957 5.030311107635498 L 8.399149894714355 4.611560821533203 L 7.000000953674316 2.072195053100586 M 7 9.5367431640625e-07 L 9.274999618530273 4.12898063659668 L 14 4.965560913085938 L 10.6810302734375 8.353981018066406 L 11.32624053955078 13.00000095367432 L 7 10.96518135070801 L 2.673760414123535 13.00000095367432 L 3.3189697265625 8.353981018066406 L 0 4.965560913085938 L 4.725000381469727 4.12899112701416 L 7 9.5367431640625e-07 Z" stroke="none" fill="#fff"/>
    </g>
    <g id="Polygon_2" data-name="Polygon 2" transform="translate(617.478 168.256) rotate(16)" fill="none" stroke-linecap="round">
      <path d="M5.5,0,7.287,3.176,11,3.82,8.392,6.426,8.9,10,5.5,8.435,2.1,10l.507-3.574L0,3.82l3.712-.644Z" stroke="none"/>
      <path d="M 5.5 2.038931369781494 L 4.583970069885254 3.666590213775635 L 4.351109981536865 4.080359935760498 L 3.883289813995361 4.161449909210205 L 2.07083797454834 4.475618362426758 L 3.314690113067627 5.718860149383545 L 3.668010234832764 6.072000026702881 L 3.59784984588623 6.566579818725586 L 3.348483562469482 8.324544906616211 L 5.081739902496338 7.526420116424561 L 5.5 7.333820343017578 L 5.918260097503662 7.526420116424561 L 7.651516437530518 8.324544906616211 L 7.40215015411377 6.566579818725586 L 7.331990242004395 6.072000026702881 L 7.685309886932373 5.718860149383545 L 8.92916202545166 4.475618362426758 L 7.11670970916748 4.161449909210205 L 6.648890018463135 4.080359935760498 L 6.416029930114746 3.666590213775635 L 5.5 2.038931369781494 M 5.5 0 L 7.287499904632568 3.176139831542969 L 11 3.819660186767578 L 8.392240524291992 6.426139831542969 L 8.899189949035645 10 L 5.5 8.434749603271484 L 2.100810050964355 10 L 2.607760429382324 6.426139831542969 L 0 3.819660186767578 L 3.712500095367432 3.176139831542969 L 5.5 0 Z" stroke="none" fill="#fff"/>
    </g>
    <path id="Polygon_8" data-name="Polygon 8" d="M4,0,5.3,2.541,8,3.056,6.1,5.141,6.472,8,4,6.748,1.528,8,1.9,5.141,0,3.056l2.7-.515Z" transform="matrix(1, 0.017, -0.017, 1, 643.076, 123.751)" fill="#fff"/>
    <g id="Polygon_10" data-name="Polygon 10" transform="matrix(1, 0.017, -0.017, 1, 618.076, 203.751)" fill="none" stroke-linecap="round">
      <path d="M4,0,5.3,2.541,8,3.056,6.1,5.141,6.472,8,4,6.748,1.528,8,1.9,5.141,0,3.056l2.7-.515Z" stroke="none"/>
      <path d="M 4 2.195515632629395 L 3.590250015258789 2.996390819549561 L 3.367559909820557 3.431641101837158 L 2.88730001449585 3.523211002349854 L 1.941060543060303 3.703634262084961 L 2.636330127716064 4.468050956726074 L 2.947490215301514 4.810160636901855 L 2.888350009918213 5.268811225891113 L 2.761266708374023 6.254281997680664 L 3.548140048980713 5.855710983276367 L 4 5.6268310546875 L 4.451859951019287 5.855710983276367 L 5.238733291625977 6.254281997680664 L 5.111649990081787 5.268811225891113 L 5.052510261535645 4.810160636901855 L 5.363670349121094 4.468050956726074 L 6.058939456939697 3.703634262084961 L 5.11269998550415 3.523211002349854 L 4.632440090179443 3.431641101837158 L 4.409749984741211 2.996390819549561 L 4 2.195515632629395 M 4 9.5367431640625e-07 L 5.300000190734863 2.540910720825195 L 8 3.055730819702148 L 6.103440284729004 5.140911102294922 L 6.472139835357666 8.000000953674316 L 4 6.747800827026367 L 1.527860164642334 8.000000953674316 L 1.896560192108154 5.140911102294922 L 0 3.055730819702148 L 2.699999809265137 2.540910720825195 L 4 9.5367431640625e-07 Z" stroke="none" fill="#fff"/>
    </g>
    <g id="Group_29" data-name="Group 29" transform="translate(176.727 915.855) rotate(-45)">
      <g id="thank_you" data-name="thank you" transform="translate(813 -176)">
        <g id="Group_19" data-name="Group 19" transform="translate(0 73.921)">
          <path id="Path_13" data-name="Path 13" d="M2.449,464.044a2.438,2.438,0,0,1-1.724-4.163l4.433-4.433A2.438,2.438,0,1,1,8.606,458.9L4.173,463.33A2.432,2.432,0,0,1,2.449,464.044Z" transform="translate(-0.011 -454.735)" fill="#00429d"/>
        </g>
        <path id="Path_14" data-name="Path 14" d="M4.671,467.273a2.434,2.434,0,0,0,3.4-.039l4.433-4.433a2.437,2.437,0,0,0,.039-3.4Z" transform="translate(-3.913 -384.718)" fill="#00347b"/>
        <g id="Group_21" data-name="Group 21" transform="translate(0.5 46.059)">
          <g id="Group_20" data-name="Group 20">
            <path id="Path_15" data-name="Path 15" d="M3.139,303.165a7.276,7.276,0,0,1,1.588-2.379l1.735-1.735,3.3-.107.166-3.355,3.431-3.431,2.587-.353.83-3.064,3.514-3.514s4.179-2.635,5.131-1.682l14.138,14.138c.952.952-1.724,5.172-1.724,5.172l-3.459,3.459-3.053.35-.392,3.095L27.5,313.182l-2.738.035-.738,3.441-1.714,1.714a7.279,7.279,0,0,1-2.165,1.5c-.953.428-18.1-14.054-17.01-16.7Z" transform="translate(-3.089 -283.336)" fill="#7dd5f4"/>
          </g>
        </g>
        <path id="Path_16" data-name="Path 16" d="M71.659,328.346,49.817,350.188c4.325,3.968,8.98,7.591,9.464,7.374a7.276,7.276,0,0,0,2.165-1.5l1.714-1.714.738-3.441,2.738-.035,3.424-3.424.392-3.095,3.053-.35,3.459-3.459s2.676-4.22,1.724-5.172Z" transform="translate(-41.721 -274.971)" fill="#4793ff"/>
        <path id="Path_17" data-name="Path 17" d="M0,0H4.877V24.871H0Z" transform="translate(10.752 54.883) rotate(-45)" fill="#4793ff"/>
        <path id="Path_18" data-name="Path 18" d="M113.8,280.933a2.438,2.438,0,0,0-3.448,0l-1.724,1.724,17.587,17.587,1.724-1.724a2.438,2.438,0,0,0,0-3.448Z" transform="translate(-90.972 -234.667)" fill="#4793ff"/>
        <path id="Path_19" data-name="Path 19" d="M.742,402.931a7.331,7.331,0,0,0,.974,7.87l8.165,8.165a7.326,7.326,0,0,0,7.87.973Z" transform="translate(-0.017 -337.431)" fill="#4793ff"/>
        <path id="Path_20" data-name="Path 20" d="M0,0H4.877V24.871H0Z" transform="translate(3.855 61.779) rotate(-45)" fill="#4793ff"/>
        <g id="Group_22" data-name="Group 22" transform="translate(38.113 42.538)">
          <path id="Path_21" data-name="Path 21" d="M277.147,275.347a2.43,2.43,0,0,1-1.7-.69,28.461,28.461,0,0,0-19.948-8.1,28.793,28.793,0,0,0-17.131,5.7,2.438,2.438,0,0,1-2.92-3.906,33.7,33.7,0,0,1,20.051-6.667,33.313,33.313,0,0,1,23.348,9.482,2.438,2.438,0,0,1-1.7,4.186Z" transform="translate(-234.469 -261.679)" fill="#ca75f5"/>
        </g>
        <g id="Group_23" data-name="Group 23" transform="translate(18.653 9.672)">
          <path id="Path_22" data-name="Path 22" d="M125.888,92.039a2.439,2.439,0,0,1-1.962-3.884,15.524,15.524,0,0,0-7.514-23.906,2.438,2.438,0,1,1,1.566-4.618,20.4,20.4,0,0,1,9.875,31.416A2.435,2.435,0,0,1,125.888,92.039Z" transform="translate(-114.756 -59.501)" fill="#37cde8"/>
        </g>
        <g id="Group_24" data-name="Group 24" transform="translate(44.65 0)">
          <path id="Path_23" data-name="Path 23" d="M277.118,29.938a2.438,2.438,0,0,1-1.724-4.163c2.324-2.324,5.524-2.9,8.348-3.412,2.326-.42,4.522-.817,5.767-2.061s1.641-3.441,2.061-5.767c.51-2.824,1.088-6.025,3.412-8.348,2.861-2.861,6.644-3.786,10.3-4.681A38.064,38.064,0,0,0,309.94.165,2.438,2.438,0,1,1,311.7,4.712a42.2,42.2,0,0,1-5.26,1.532c-3.145.769-6.116,1.5-8.012,3.392-1.244,1.245-1.641,3.441-2.061,5.767-.51,2.824-1.088,6.024-3.412,8.348s-5.524,2.9-8.348,3.412c-2.326.42-4.522.817-5.767,2.061A2.432,2.432,0,0,1,277.118,29.938Z" transform="translate(-274.679 0)" fill="#ff8856"/>
        </g>
        <g id="Group_25" data-name="Group 25" transform="translate(2.926 3.74)">
          <path id="Path_24" data-name="Path 24" d="M321.448,31.882a2.438,2.438,0,1,0-2.438-2.438A2.443,2.443,0,0,0,321.448,31.882Z" transform="translate(-270.08 -26.355)" fill="#bee75e" fill-rule="evenodd"/>
          <path id="Path_25" data-name="Path 25" d="M35.926,189.82a2.438,2.438,0,1,0-2.438-2.438A2.443,2.443,0,0,0,35.926,189.82Z" transform="translate(-30.972 -158.619)" fill="#d98ff8" fill-rule="evenodd"/>
          <path id="Path_26" data-name="Path 26" d="M20.448,27.882a2.438,2.438,0,1,0-2.438-2.438A2.443,2.443,0,0,0,20.448,27.882Z" transform="translate(-18.01 -23.005)" fill="#7dd5f4" fill-rule="evenodd"/>
          <path id="Path_27" data-name="Path 27" d="M352.448,345.881a2.438,2.438,0,1,0-2.438-2.438A2.443,2.443,0,0,0,352.448,345.881Z" transform="translate(-296.041 -289.311)" fill="#ff8856" fill-rule="evenodd"/>
          <path id="Path_28" data-name="Path 28" d="M439.448,482.881a2.438,2.438,0,1,0-2.438-2.438A2.443,2.443,0,0,0,439.448,482.881Z" transform="translate(-368.898 -404.04)" fill="#4793ff" fill-rule="evenodd"/>
          <path id="Path_29" data-name="Path 29" d="M236.448,466.882a2.438,2.438,0,1,0-2.438-2.438A2.443,2.443,0,0,0,236.448,466.882Z" transform="translate(-198.898 -390.642)" fill="#ff435b" fill-rule="evenodd"/>
        </g>
        <g id="Group_26" data-name="Group 26" transform="translate(37.11 0)">
          <path id="Path_30" data-name="Path 30" d="M233.39,15.846c-.067,0-.135,0-.2-.008a2.438,2.438,0,0,1-2.229-2.631,15.627,15.627,0,0,0-2.289-9.478,2.438,2.438,0,1,1,4.141-2.576,20.536,20.536,0,0,1,3.008,12.456A2.439,2.439,0,0,1,233.39,15.846Z" transform="translate(-228.3 -0.002)" fill="#d98ff8"/>
        </g>
        <g id="Group_27" data-name="Group 27" transform="translate(59.308 29.053)">
          <path id="Path_31" data-name="Path 31" d="M367.294,185.19a2.439,2.439,0,0,1-.771-4.752,33.627,33.627,0,0,1,15.922-1.291,2.438,2.438,0,1,1-.777,4.814,28.718,28.718,0,0,0-13.6,1.1,2.433,2.433,0,0,1-.771.126Z" transform="translate(-364.855 -178.722)" fill="#ff435b"/>
        </g>
        <path id="Path_32" data-name="Path 32" d="M254.682,235.307a2.438,2.438,0,1,0-2.438-2.438A2.443,2.443,0,0,0,254.682,235.307Z" transform="translate(-211.242 -192.972)" fill="#7dd5f4" fill-rule="evenodd"/>
        <path id="Path_33" data-name="Path 33" d="M465.448,84.882a2.438,2.438,0,1,0-2.438-2.438A2.443,2.443,0,0,0,465.448,84.882Z" transform="translate(-387.746 -66.999)" fill="#00cb75" fill-rule="evenodd"/>
        <g id="Group_28" data-name="Group 28" transform="translate(56.522 0.757)">
          <path id="Path_34" data-name="Path 34" d="M347.718,116.157a10.559,10.559,0,0,0,9.443-9.443Z" transform="translate(-347.718 -90.124)" fill="#ff435b"/>
          <path id="Path_35" data-name="Path 35" d="M480.7,4.657,475.43,9.93a36.281,36.281,0,0,0,4.39-1.318,2.438,2.438,0,0,0,.884-3.955Z" transform="translate(-454.669 -4.657)" fill="#ff435b"/>
        </g>
        <path id="Path_36" data-name="Path 36" d="M260.019,234.761l-3.444,3.444a2.436,2.436,0,1,0,3.444-3.444Z" transform="translate(-214.868 -196.599)" fill="#4793ff" fill-rule="evenodd"/>
        <path id="Path_37" data-name="Path 37" d="M166.417,328.346l-3.448,3.448,8.753,8.753,1.724-1.724a2.438,2.438,0,0,0,0-3.448Z" transform="translate(-136.479 -274.971)" fill="#525cdd"/>
        <path id="Path_38" data-name="Path 38" d="M0,0H4.877V12.379H0Z" transform="translate(19.584 63.716) rotate(-45)" fill="#525cdd"/>
        <path id="Path_39" data-name="Path 39" d="M0,0H4.877V12.379H0Z" transform="translate(12.687 70.612) rotate(-45)" fill="#525cdd"/>
        <path id="Path_40" data-name="Path 40" d="M35.82,458.941l4.042,4.042a7.326,7.326,0,0,0,7.87.973l-8.464-8.464Z" transform="translate(-29.999 -381.449)" fill="#525cdd"/>
      </g>
    </g>
  </g>
</svg>
