<?xml version="1.0" encoding="utf-8"?>
<!-- Generator: Adobe Illustrator 14.0.0, SVG Export Plug-In . SVG Version: 6.00 Build 43363)  -->
<!DOCTYPE svg PUBLIC "-//W3C//DTD SVG 1.1//EN" "http://www.w3.org/Graphics/SVG/1.1/DTD/svg11.dtd">
<svg version="1.1" id="Layer_1" xmlns="http://www.w3.org/2000/svg" xmlns:xlink="http://www.w3.org/1999/xlink" x="0px" y="0px"
	 width="16px" height="16px" viewBox="0 0 16 16" enable-background="new 0 0 16 16" xml:space="preserve">
<circle fill="#FFFFFF" cx="7.939" cy="7.938" r="7.405"/>
<g>
	<path fill="#999999" d="M8,16c-4.411,0-8-3.589-8-8s3.589-8,8-8s8,3.589,8,8S12.411,16,8,16z M8,1.143
		C4.219,1.143,1.143,4.219,1.143,8S4.22,14.857,8,14.857c3.781,0,6.857-3.076,6.857-6.857S11.781,1.143,8,1.143z"/>
</g>
<g>
	<path fill="#6C6A6A" d="M9.135,6.545L7.856,10.43c-0.067,0.223-0.101,0.371-0.101,0.443c0,0.035,0.019,0.072,0.054,0.107
		c0.036,0.037,0.075,0.055,0.116,0.055c0.071,0,0.328,0.003,0.395-0.053c0.421-0.207,0.861-0.404,1.119-0.759L9.74,10.46
		c-0.627,0.962-1.805,1.515-2.511,1.515c-0.268,0-0.795-0.19-0.955-0.324c-0.16-0.134-0.135-0.384-0.135-0.589
		c0-0.135,0.036-0.308,0.108-0.517l0.867-2.613c0.082-0.249,0.123-0.436,0.123-0.564c0-0.081-0.04-0.153-0.119-0.218
		c-0.08-0.063-0.188-0.094-0.321-0.094c-0.067,0-0.142,0.002-0.224,0.006L6.65,6.845l2.112-0.299H9.135z M8.746,4.025
		c0.258,0,0.475,0.079,0.652,0.238c0.18,0.159,0.268,0.35,0.268,0.571c0,0.222-0.09,0.411-0.27,0.567
		c-0.18,0.157-0.398,0.234-0.65,0.234c-0.247,0-0.46-0.078-0.638-0.234C7.929,5.245,7.841,5.056,7.841,4.834
		c0-0.222,0.087-0.413,0.262-0.571C8.278,4.105,8.493,4.025,8.746,4.025z"/>
</g>
</svg>
