<?xml version="1.0" encoding="utf-8"?>
<!-- Generator: Adobe Illustrator 14.0.0, SVG Export Plug-In . SVG Version: 6.00 Build 43363)  -->
<!DOCTYPE svg PUBLIC "-//W3C//DTD SVG 1.1//EN" "http://www.w3.org/Graphics/SVG/1.1/DTD/svg11.dtd">
<svg version="1.1" id="Layer_1" xmlns="http://www.w3.org/2000/svg" xmlns:xlink="http://www.w3.org/1999/xlink" x="0px" y="0px"
	 width="30px" height="30px" viewBox="0 0 30 30" enable-background="new 0 0 30 30" xml:space="preserve">
<g>
	<g>
		<path fill="#7E7D7D" d="M25.606,4.394C22.771,1.559,19.009,0,15,0S7.229,1.559,4.395,4.394C1.56,7.229,0,10.991,0,15
			c0,4.008,1.56,7.771,4.395,10.605C7.229,28.44,10.991,30,15,30s7.771-1.56,10.606-4.395C28.441,22.771,30,19.008,30,15
			C30,10.991,28.441,7.229,25.606,4.394z M24.754,24.754c-2.607,2.606-6.073,4.041-9.754,4.041s-7.146-1.435-9.753-4.041
			c-5.378-5.379-5.378-14.13,0-19.508C7.854,2.64,11.319,1.205,15,1.205s7.146,1.435,9.754,4.042
			C30.132,10.624,30.132,19.375,24.754,24.754z"/>
		<g>
			<g>
				<g>
					<g>
						<path fill="#7E7D7D" d="M14.833,15.779c0.017,0,0.033,0,0.055,0c0.006,0,0.013,0,0.02,0c0.01,0,0.023,0,0.033,0
							c0.994-0.018,1.799-0.367,2.393-1.036c1.307-1.472,1.09-3.996,1.065-4.237c-0.085-1.809-0.94-2.674-1.646-3.078
							c-0.525-0.302-1.14-0.465-1.825-0.479h-0.024c-0.003,0-0.01,0-0.014,0h-0.02c-0.377,0-1.117,0.061-1.826,0.465
							c-0.711,0.404-1.58,1.27-1.665,3.091c-0.024,0.241-0.241,2.765,1.065,4.237C13.034,15.412,13.839,15.762,14.833,15.779z
							 M12.284,10.591c0-0.01,0.004-0.021,0.004-0.028c0.111-2.432,1.839-2.694,2.578-2.694h0.014c0.008,0,0.018,0,0.027,0
							c0.916,0.021,2.474,0.394,2.578,2.694c0,0.01,0,0.021,0.004,0.028c0.004,0.024,0.24,2.331-0.838,3.545
							c-0.428,0.481-0.998,0.719-1.748,0.726c-0.006,0-0.01,0-0.016,0l0,0c-0.008,0-0.012,0-0.018,0
							c-0.746-0.007-1.32-0.245-1.744-0.726C12.05,12.929,12.28,10.611,12.284,10.591z"/>
						<path fill="#7E7D7D" d="M21.86,19.967c0-0.004,0-0.008,0-0.011c0-0.028-0.004-0.056-0.004-0.085
							c-0.021-0.672-0.064-2.243-1.537-2.745c-0.011-0.004-0.023-0.007-0.034-0.011c-1.53-0.39-2.802-1.271-2.816-1.281
							c-0.207-0.146-0.491-0.096-0.638,0.111c-0.146,0.206-0.095,0.491,0.111,0.639c0.059,0.039,1.409,0.979,3.099,1.414
							c0.79,0.281,0.878,1.126,0.902,1.899c0,0.03,0,0.059,0.003,0.085c0.004,0.306-0.017,0.777-0.07,1.049
							c-0.551,0.312-2.705,1.392-5.982,1.392c-3.264,0-5.432-1.083-5.984-1.396c-0.055-0.271-0.078-0.743-0.072-1.049
							c0-0.026,0.004-0.053,0.004-0.084c0.023-0.773,0.111-1.619,0.902-1.9c1.689-0.434,3.04-1.377,3.098-1.415
							c0.207-0.146,0.258-0.431,0.112-0.638c-0.146-0.206-0.431-0.258-0.638-0.111c-0.014,0.01-1.279,0.892-2.816,1.282
							c-0.014,0.003-0.023,0.007-0.034,0.01c-1.473,0.506-1.517,2.077-1.537,2.745c0,0.03,0,0.059-0.003,0.085
							c0,0.004,0,0.007,0,0.011c-0.003,0.176-0.006,1.082,0.173,1.536c0.034,0.089,0.095,0.163,0.177,0.214
							c0.102,0.068,2.541,1.622,6.623,1.622s6.521-1.558,6.623-1.622c0.078-0.051,0.143-0.125,0.176-0.214
							C21.866,21.049,21.862,20.143,21.86,19.967z"/>
					</g>
				</g>
			</g>
		</g>
	</g>
</g>
</svg>
