<?xml version="1.0" encoding="utf-8"?>
<!-- Generator: Adobe Illustrator 14.0.0, SVG Export Plug-In . SVG Version: 6.00 Build 43363)  -->
<!DOCTYPE svg PUBLIC "-//W3C//DTD SVG 1.1//EN" "http://www.w3.org/Graphics/SVG/1.1/DTD/svg11.dtd">
<svg version="1.1" id="Layer_1" xmlns="http://www.w3.org/2000/svg" xmlns:xlink="http://www.w3.org/1999/xlink" x="0px" y="0px"
	 width="18px" height="18px" viewBox="0 0 18 18" enable-background="new 0 0 18 18" xml:space="preserve">
<g>
	<g>
		<g>
			<path fill="#B7B7B7" d="M16.418,2.109h-0.527V1.582C15.891,0.71,15.182,0,14.309,0c-0.871,0-1.582,0.71-1.582,1.582v0.527h-2.108
				V1.582C10.617,0.71,9.907,0,9.035,0S7.453,0.71,7.453,1.582v0.527h-2.18V1.582C5.273,0.71,4.564,0,3.692,0
				C2.819,0,2.11,0.71,2.11,1.582v0.527H1.582C0.71,2.109,0,2.818,0,3.692c0,0.076,0,12.525,0,12.727C0,17.29,0.71,18,1.582,18
				h14.836C17.29,18,18,17.29,18,16.418c0-0.096,0-12.556,0-12.727C18,2.818,17.29,2.109,16.418,2.109z M13.781,1.582
				c0-0.291,0.236-0.527,0.527-0.527s0.525,0.237,0.525,0.527v2.11c0,0.29-0.234,0.527-0.525,0.527s-0.527-0.237-0.527-0.527V1.582z
				 M8.508,1.582c0-0.291,0.237-0.527,0.527-0.527s0.527,0.237,0.527,0.527v2.11c0,0.29-0.237,0.527-0.527,0.527
				S8.508,3.982,8.508,3.692V1.582z M3.165,1.582c0-0.291,0.236-0.527,0.527-0.527c0.29,0,0.527,0.237,0.527,0.527v2.11
				c0,0.29-0.237,0.527-0.527,0.527c-0.291,0-0.527-0.237-0.527-0.527V1.582z M16.945,16.418c0,0.291-0.236,0.527-0.527,0.527H1.582
				c-0.291,0-0.527-0.236-0.527-0.527V7.453h15.89V16.418L16.945,16.418z M16.945,6.398H1.055V3.692
				c0-0.291,0.237-0.527,0.527-0.527H2.11v0.527c0,0.872,0.709,1.582,1.582,1.582c0.872,0,1.582-0.71,1.582-1.582V3.165h2.18v0.527
				c0,0.872,0.71,1.582,1.582,1.582s1.582-0.71,1.582-1.582V3.165h2.11v0.527c0,0.872,0.711,1.582,1.582,1.582
				s1.582-0.71,1.582-1.582V3.165h0.525c0.29,0,0.525,0.236,0.525,0.527v2.706H16.945z"/>
		</g>
	</g>
	<g>
		<g>
			<path fill="#B7B7B7" d="M15.363,8.508H2.637c-0.292,0-0.527,0.235-0.527,0.527v6.328c0,0.291,0.236,0.527,0.527,0.527h12.726
				c0.291,0,0.527-0.236,0.527-0.527V9.035C15.891,8.743,15.654,8.508,15.363,8.508z M5.273,14.836H3.165v-2.109h2.109L5.273,14.836
				L5.273,14.836z M5.273,11.672H3.165V9.563h2.109L5.273,11.672L5.273,11.672z M8.508,14.836h-2.18v-2.109h2.18V14.836z
				 M8.508,11.672h-2.18V9.563h2.18V11.672z M11.672,14.836H9.563v-2.109h2.109V14.836z M11.672,11.672H9.563V9.563h2.109V11.672z
				 M14.836,14.836h-2.109v-2.109h2.109V14.836z M14.836,11.672h-2.109V9.563h2.109V11.672z"/>
		</g>
	</g>
</g>
</svg>
