<?xml version="1.0" encoding="utf-8"?>
<!-- Generator: Adobe Illustrator 14.0.0, SVG Export Plug-In . SVG Version: 6.00 Build 43363)  -->
<!DOCTYPE svg PUBLIC "-//W3C//DTD SVG 1.1//EN" "http://www.w3.org/Graphics/SVG/1.1/DTD/svg11.dtd">
<svg version="1.1" id="Layer_1" xmlns="http://www.w3.org/2000/svg" xmlns:xlink="http://www.w3.org/1999/xlink" x="0px" y="0px"
	 width="30px" height="30px" viewBox="0 0 30 30" enable-background="new 0 0 30 30" xml:space="preserve">
<g>
	<g>
		<path fill="#8A7ABF" d="M28.964,11.653l-2.105-0.358c-0.22-0.708-0.502-1.39-0.846-2.042l1.24-1.736
			c0.526-0.74,0.445-1.749-0.201-2.388l-1.867-1.868c-0.351-0.351-0.814-0.545-1.31-0.545c-0.389,0-0.759,0.119-1.071,0.345
			l-1.742,1.241c-0.678-0.357-1.386-0.652-2.118-0.872l-0.352-2.08c-0.15-0.897-0.922-1.548-1.83-1.548h-2.638
			c-0.909,0-1.68,0.651-1.831,1.548l-0.363,2.13C11.228,3.7,10.545,3.989,9.894,4.34L8.17,3.098C7.856,2.873,7.48,2.754,7.092,2.754
			c-0.495,0-0.965,0.194-1.309,0.545L3.908,5.167c-0.639,0.639-0.727,1.648-0.2,2.387l1.253,1.761
			c-0.345,0.658-0.621,1.341-0.834,2.049l-2.08,0.351c-0.897,0.15-1.548,0.921-1.548,1.83v2.638c0,0.908,0.651,1.68,1.548,1.83
			l2.13,0.363c0.219,0.701,0.508,1.385,0.859,2.037l-1.235,1.717c-0.527,0.739-0.445,1.748,0.201,2.387l1.867,1.868
			c0.351,0.351,0.814,0.546,1.31,0.546c0.388,0,0.758-0.119,1.071-0.346l1.761-1.252c0.633,0.332,1.298,0.602,1.98,0.813
			l0.352,2.106c0.15,0.896,0.921,1.547,1.83,1.547h2.645c0.908,0,1.68-0.65,1.83-1.547l0.357-2.106
			c0.708-0.22,1.391-0.501,2.043-0.846l1.735,1.241c0.313,0.225,0.689,0.344,1.078,0.344l0,0c0.495,0,0.959-0.193,1.311-0.545
			l1.867-1.867c0.639-0.639,0.727-1.648,0.2-2.388l-1.241-1.742c0.345-0.658,0.634-1.341,0.846-2.044l2.106-0.35
			c0.896-0.15,1.548-0.922,1.548-1.83v-2.638C30.512,12.574,29.86,11.804,28.964,11.653z M28.819,16.121
			c0,0.082-0.057,0.15-0.138,0.162l-2.632,0.439c-0.332,0.057-0.596,0.301-0.677,0.62c-0.238,0.921-0.602,1.805-1.091,2.626
			c-0.169,0.289-0.156,0.646,0.038,0.922l1.548,2.18c0.043,0.063,0.038,0.158-0.02,0.214l-1.867,1.868
			c-0.044,0.043-0.088,0.049-0.119,0.049c-0.037,0-0.068-0.012-0.094-0.03l-2.175-1.548c-0.27-0.195-0.633-0.208-0.922-0.039
			c-0.82,0.49-1.704,0.854-2.625,1.092c-0.326,0.08-0.57,0.35-0.621,0.676l-0.444,2.633c-0.013,0.082-0.082,0.138-0.163,0.138H14.18
			c-0.082,0-0.151-0.056-0.163-0.138l-0.438-2.633c-0.057-0.332-0.301-0.596-0.62-0.676c-0.897-0.232-1.762-0.59-2.57-1.053
			c-0.132-0.076-0.283-0.113-0.426-0.113c-0.169,0-0.345,0.05-0.489,0.157L7.28,25.228c-0.032,0.019-0.063,0.03-0.094,0.03
			c-0.025,0-0.075-0.006-0.119-0.05L5.2,23.34c-0.057-0.056-0.063-0.145-0.019-0.213l1.542-2.162
			c0.194-0.275,0.206-0.639,0.037-0.927c-0.489-0.815-0.865-1.698-1.103-2.62C5.569,17.1,5.306,16.854,4.98,16.797l-2.651-0.45
			c-0.081-0.013-0.138-0.082-0.138-0.163v-2.638c0-0.082,0.057-0.15,0.138-0.163l2.614-0.438c0.332-0.057,0.602-0.301,0.683-0.626
			c0.232-0.921,0.589-1.812,1.071-2.632c0.169-0.289,0.15-0.646-0.044-0.915L5.093,6.577C5.049,6.514,5.056,6.42,5.112,6.363
			l1.868-1.868c0.043-0.044,0.087-0.05,0.118-0.05c0.038,0,0.069,0.014,0.095,0.032l2.162,1.542c0.276,0.194,0.64,0.206,0.928,0.037
			c0.815-0.488,1.698-0.865,2.62-1.103c0.319-0.088,0.563-0.352,0.62-0.677l0.451-2.65c0.012-0.082,0.082-0.139,0.163-0.139h2.638
			c0.081,0,0.15,0.057,0.163,0.139l0.438,2.613c0.056,0.332,0.301,0.601,0.627,0.683c0.946,0.238,1.849,0.607,2.688,1.103
			c0.288,0.168,0.646,0.156,0.922-0.039l2.162-1.554c0.03-0.019,0.062-0.031,0.093-0.031c0.025,0,0.076,0.006,0.12,0.05l1.867,1.868
			c0.056,0.057,0.063,0.145,0.019,0.213l-1.548,2.174c-0.194,0.27-0.207,0.633-0.038,0.921c0.489,0.822,0.853,1.705,1.091,2.626
			c0.081,0.326,0.352,0.571,0.677,0.621l2.632,0.445c0.082,0.013,0.139,0.081,0.139,0.164v2.638H28.819z"/>
		<path fill="#8A7ABF" d="M15.502,8.325c-3.571,0-6.474,2.902-6.474,6.474c0,3.573,2.902,6.475,6.474,6.475
			c3.572,0,6.475-2.902,6.475-6.475C21.977,11.227,19.074,8.325,15.502,8.325z M15.502,19.58c-2.638,0-4.781-2.143-4.781-4.782
			c0-2.638,2.143-4.781,4.781-4.781c2.639,0,4.781,2.144,4.781,4.781C20.283,17.438,18.141,19.58,15.502,19.58z"/>
	</g>
</g>
</svg>
